# Blender 4.0.2
# www.blender.org
o Plane
v -14.460000 -15.000000 0.540000
v 14.460000 -15.000000 0.540000
v -14.460000 14.460000 0.540000
v 14.460000 14.460000 0.540000
v -14.460000 -15.000000 5.000000
v 14.460000 -15.000000 5.000000
v -14.460000 14.460000 5.000000
v 14.460000 14.460000 5.000000
v -15.000000 -15.000000 0.000000
v 15.000000 -15.000000 0.000000
v -15.000000 15.000000 0.000000
v 15.000000 15.000000 0.000000
v -15.000000 -15.000000 5.000000
v 15.000000 -15.000000 5.000000
v -15.000000 15.000000 5.000000
v 15.000000 15.000000 5.000000
vn -0.0000 -0.0000 1.0000
vn -0.0000 -1.0000 -0.0000
vn -1.0000 -0.0000 -0.0000
vn 1.0000 -0.0000 -0.0000
vn -0.0000 -0.0000 -1.0000
vn -0.0000 1.0000 -0.0000
s 0
f 2//1 3//1 1//1
f 4//2 7//2 3//2
f 2//3 8//3 4//3
f 3//4 5//4 1//4
f 11//5 10//5 9//5
f 15//6 12//6 11//6
f 16//4 10//4 12//4
f 13//3 11//3 9//3
f 1//2 10//2 2//2
f 7//1 13//1 5//1
f 8//1 14//1 16//1
f 8//1 15//1 7//1
f 2//2 14//2 6//2
f 1//2 13//2 9//2
f 2//1 4//1 3//1
f 4//2 8//2 7//2
f 2//3 6//3 8//3
f 3//4 7//4 5//4
f 11//5 12//5 10//5
f 15//6 16//6 12//6
f 16//4 14//4 10//4
f 13//3 15//3 11//3
f 1//2 9//2 10//2
f 7//1 15//1 13//1
f 8//1 6//1 14//1
f 8//1 16//1 15//1
f 2//2 10//2 14//2
f 1//2 5//2 13//2
