# Blender 4.0.2
# www.blender.org
o east_mesh
v 2.605404 0.370524 4.145509
v 2.204199 0.370524 4.145509
v 2.204199 -0.311476 4.145509
v 2.614734 -0.311476 4.145509
v 2.614734 -0.223476 4.145509
v 2.305796 -0.223476 4.145509
v 2.305796 -0.011476 4.145509
v 2.595037 -0.011476 4.145509
v 2.595037 0.076524 4.145509
v 2.305796 0.076524 4.145509
v 2.305796 0.282524 4.145509
v 2.605404 0.282524 4.145509
v 2.614734 -0.311476 4.232807
v 2.614734 -0.223476 4.232807
v 2.595037 -0.011476 4.232807
v 2.595037 0.076524 4.232807
v 2.605404 0.370524 4.232807
v 2.204199 0.370524 4.232807
v 2.305796 -0.223476 4.232807
v 2.305796 0.076524 4.232807
v 2.305796 0.282524 4.232807
v 2.605404 0.282524 4.232807
v 2.204199 -0.311476 4.232807
v 2.305796 -0.011476 4.232807
vn -0.0000 -0.0000 -1.0000
vn -0.0000 -0.0000 1.0000
vn 1.0000 -0.0000 -0.0000
vn -0.0000 -1.0000 -0.0000
vn -0.0000 1.0000 -0.0000
vn -1.0000 -0.0000 -0.0000
s 1
f 3//1 2//1 11//1
f 11//1 2//1 1//1
f 11//1 1//1 12//1
f 3//1 11//1 10//1
f 3//1 10//1 7//1
f 7//1 10//1 9//1
f 7//1 9//1 8//1
f 3//1 7//1 6//1
f 3//1 6//1 5//1
f 3//1 5//1 4//1
f 23//2 21//2 18//2
f 21//2 17//2 18//2
f 21//2 22//2 17//2
f 23//2 20//2 21//2
f 23//2 24//2 20//2
f 24//2 16//2 20//2
f 24//2 15//2 16//2
f 23//2 19//2 24//2
f 23//2 14//2 19//2
f 23//2 13//2 14//2
f 7//3 19//3 6//3
f 8//4 24//4 7//4
f 1//3 22//3 12//3
f 12//4 21//4 11//4
f 6//5 14//5 5//5
f 5//3 13//3 4//3
f 11//3 20//3 10//3
f 10//5 16//5 9//5
f 9//3 15//3 8//3
f 3//6 18//6 2//6
f 4//4 23//4 3//4
f 2//5 17//5 1//5
f 7//3 24//3 19//3
f 8//4 15//4 24//4
f 1//3 17//3 22//3
f 12//4 22//4 21//4
f 6//5 19//5 14//5
f 5//3 14//3 13//3
f 11//3 21//3 20//3
f 10//5 20//5 16//5
f 9//3 16//3 15//3
f 3//6 23//6 18//6
f 4//4 13//4 23//4
f 2//5 18//5 17//5
