# Blender 4.0.2
# www.blender.org
o south_mesh
v 0.177714 -1.849680 4.143415
v 0.165054 -1.841645 4.143415
v 0.152233 -1.834309 4.143415
v 0.139267 -1.827672 4.143415
v 0.126169 -1.821734 4.143415
v 0.112956 -1.816494 4.143415
v 0.099640 -1.811953 4.143415
v 0.086237 -1.808110 4.143415
v 0.072762 -1.804966 4.143415
v 0.059228 -1.802521 4.143415
v 0.045650 -1.800774 4.143415
v 0.032043 -1.799726 4.143415
v 0.018422 -1.799377 4.143415
v -0.013364 -1.800908 4.143415
v -0.043131 -1.805427 4.143415
v -0.070737 -1.812820 4.143415
v -0.096039 -1.822976 4.143415
v -0.118896 -1.835780 4.143415
v -0.139166 -1.851120 4.143415
v -0.156707 -1.868884 4.143415
v -0.171377 -1.888959 4.143415
v -0.183034 -1.911232 4.143415
v -0.191536 -1.935589 4.143415
v -0.196741 -1.961919 4.143415
v -0.198508 -1.990108 4.143415
v -0.192425 -2.035547 4.143415
v -0.175608 -2.074596 4.143415
v -0.150203 -2.108332 4.143415
v -0.118357 -2.137833 4.143415
v -0.082218 -2.164176 4.143415
v -0.043932 -2.188437 4.143415
v -0.005646 -2.211694 4.143415
v 0.030493 -2.235023 4.143415
v 0.062339 -2.259502 4.143415
v 0.087744 -2.286209 4.143415
v 0.104561 -2.316219 4.143415
v 0.110644 -2.350610 4.143415
v 0.109876 -2.360749 4.143415
v 0.107559 -2.371114 4.143415
v 0.103669 -2.381493 4.143415
v 0.098185 -2.391675 4.143415
v 0.091086 -2.401450 4.143415
v 0.082349 -2.410607 4.143415
v 0.071953 -2.418934 4.143415
v 0.059876 -2.426220 4.143415
v 0.046096 -2.432254 4.143415
v 0.030591 -2.436826 4.143415
v 0.013339 -2.439723 4.143415
v -0.005681 -2.440736 4.143415
v -0.023142 -2.439976 4.143415
v -0.040395 -2.437709 4.143415
v -0.057408 -2.433957 4.143415
v -0.074148 -2.428743 4.143415
v -0.090583 -2.422087 4.143415
v -0.106679 -2.414013 4.143415
v -0.122404 -2.404541 4.143415
v -0.137725 -2.393694 4.143415
v -0.152610 -2.381493 4.143415
v -0.167025 -2.367960 4.143415
v -0.180938 -2.353117 4.143415
v -0.194316 -2.336987 4.143415
v -0.194316 -2.466935 4.143415
v -0.179310 -2.477701 4.143415
v -0.164133 -2.487473 4.143415
v -0.148745 -2.496262 4.143415
v -0.133106 -2.504080 4.143415
v -0.117176 -2.510937 4.143415
v -0.100915 -2.516845 4.143415
v -0.084283 -2.521814 4.143415
v -0.067239 -2.525855 4.143415
v -0.049745 -2.528979 4.143415
v -0.031759 -2.531197 4.143415
v -0.013242 -2.532519 4.143415
v 0.005847 -2.532958 4.143415
v 0.034001 -2.531284 4.143415
v 0.060700 -2.526384 4.143415
v 0.085754 -2.518433 4.143415
v 0.108974 -2.507612 4.143415
v 0.130172 -2.494098 4.143415
v 0.149156 -2.478070 4.143415
v 0.165739 -2.459706 4.143415
v 0.179732 -2.439183 4.143415
v 0.190944 -2.416682 4.143415
v 0.199187 -2.392379 4.143415
v 0.204272 -2.366453 4.143415
v 0.206009 -2.339083 4.143415
v 0.199926 -2.286798 4.143415
v 0.183109 -2.242795 4.143415
v 0.157704 -2.205794 4.143415
v 0.125859 -2.174512 4.143415
v 0.089719 -2.147670 4.143415
v 0.051433 -2.123986 4.143415
v 0.013147 -2.102180 4.143415
v -0.022992 -2.080971 4.143415
v -0.054838 -2.059078 4.143415
v -0.080242 -2.035219 4.143415
v -0.097060 -2.008115 4.143415
v -0.103142 -1.976484 4.143415
v -0.102176 -1.964247 4.143415
v -0.099343 -1.952730 4.143415
v -0.094742 -1.941999 4.143415
v -0.088470 -1.932120 4.143415
v -0.080627 -1.923158 4.143415
v -0.071310 -1.915178 4.143415
v -0.060617 -1.908246 4.143415
v -0.048647 -1.902427 4.143415
v -0.035499 -1.897788 4.143415
v -0.021269 -1.894393 4.143415
v -0.006057 -1.892308 4.143415
v 0.010039 -1.891598 4.143415
v 0.022304 -1.891962 4.143415
v 0.034977 -1.893107 4.143415
v 0.048028 -1.895119 4.143415
v 0.061428 -1.898080 4.143415
v 0.075149 -1.902075 4.143415
v 0.089161 -1.907187 4.143415
v 0.103435 -1.913500 4.143415
v 0.117941 -1.921097 4.143415
v 0.132652 -1.930062 4.143415
v 0.147537 -1.940480 4.143415
v 0.162567 -1.952432 4.143415
v 0.177714 -1.966005 4.143415
v 0.177714 -1.849680 4.234900
v 0.165054 -1.841645 4.234900
v 0.126169 -1.821734 4.234900
v 0.112956 -1.816494 4.234900
v 0.072762 -1.804966 4.234900
v 0.059228 -1.802521 4.234900
v 0.018422 -1.799377 4.234900
v -0.013364 -1.800908 4.234900
v -0.043131 -1.805427 4.234900
v -0.096039 -1.822976 4.234900
v -0.118896 -1.835780 4.234900
v -0.139166 -1.851120 4.234900
v -0.171377 -1.888959 4.234900
v -0.183034 -1.911232 4.234900
v 0.165739 -2.459706 4.234900
v 0.179732 -2.439183 4.234900
v -0.198508 -1.990108 4.234900
v -0.192425 -2.035547 4.234900
v -0.118357 -2.137833 4.234900
v -0.082218 -2.164176 4.234900
v 0.030493 -2.235023 4.234900
v 0.062339 -2.259502 4.234900
v 0.110644 -2.350610 4.234900
v 0.109876 -2.360749 4.234900
v 0.098185 -2.391675 4.234900
v 0.091086 -2.401450 4.234900
v 0.059876 -2.426220 4.234900
v 0.046096 -2.432254 4.234900
v -0.005681 -2.440736 4.234900
v -0.023142 -2.439976 4.234900
v -0.074148 -2.428743 4.234900
v -0.090583 -2.422087 4.234900
v -0.137725 -2.393694 4.234900
v -0.152610 -2.381493 4.234900
v -0.194316 -2.336987 4.234900
v -0.194316 -2.466935 4.234900
v -0.148745 -2.496262 4.234900
v -0.133106 -2.504080 4.234900
v -0.084283 -2.521814 4.234900
v -0.067239 -2.525855 4.234900
v -0.013242 -2.532519 4.234900
v 0.005847 -2.532958 4.234900
v 0.034001 -2.531284 4.234900
v 0.060700 -2.526384 4.234900
v 0.204272 -2.366453 4.234900
v 0.206009 -2.339083 4.234900
v 0.108974 -2.507612 4.234900
v 0.130172 -2.494098 4.234900
v 0.199187 -2.392379 4.234900
v 0.183109 -2.242795 4.234900
v 0.157704 -2.205794 4.234900
v 0.125859 -2.174512 4.234900
v 0.089719 -2.147670 4.234900
v 0.051433 -2.123986 4.234900
v 0.013147 -2.102180 4.234900
v -0.022992 -2.080971 4.234900
v -0.097060 -2.008115 4.234900
v -0.103142 -1.976484 4.234900
v -0.102176 -1.964247 4.234900
v -0.094742 -1.941999 4.234900
v -0.088470 -1.932120 4.234900
v -0.060617 -1.908246 4.234900
v -0.048647 -1.902427 4.234900
v -0.006057 -1.892308 4.234900
v 0.010039 -1.891598 4.234900
v 0.061428 -1.898080 4.234900
v 0.075149 -1.902075 4.234900
v 0.089161 -1.907187 4.234900
v 0.103435 -1.913500 4.234900
v 0.117941 -1.921097 4.234900
v 0.132652 -1.930062 4.234900
v 0.147537 -1.940480 4.234900
v 0.162567 -1.952432 4.234900
v 0.177714 -1.966005 4.234900
v -0.175608 -2.074596 4.234900
v -0.054838 -2.059078 4.234900
v -0.040395 -2.437709 4.234900
v -0.106679 -2.414013 4.234900
v 0.152233 -1.834309 4.234900
v 0.099640 -1.811953 4.234900
v 0.045650 -1.800774 4.234900
v -0.070737 -1.812820 4.234900
v -0.191536 -1.935589 4.234900
v -0.043932 -2.188437 4.234900
v 0.087744 -2.286209 4.234900
v 0.190944 -2.416682 4.234900
v 0.107559 -2.371114 4.234900
v 0.082349 -2.410607 4.234900
v 0.030591 -2.436826 4.234900
v -0.167025 -2.367960 4.234900
v -0.179310 -2.477701 4.234900
v -0.117176 -2.510937 4.234900
v -0.049745 -2.528979 4.234900
v 0.149156 -2.478070 4.234900
v 0.199926 -2.286798 4.234900
v -0.080242 -2.035219 4.234900
v -0.080627 -1.923158 4.234900
v -0.071310 -1.915178 4.234900
v -0.035499 -1.897788 4.234900
v -0.021269 -1.894393 4.234900
v 0.022304 -1.891962 4.234900
v 0.048028 -1.895119 4.234900
v -0.057408 -2.433957 4.234900
v -0.122404 -2.404541 4.234900
v 0.139267 -1.827672 4.234900
v 0.086237 -1.808110 4.234900
v 0.032043 -1.799726 4.234900
v -0.099343 -1.952730 4.234900
v 0.013339 -2.439723 4.234900
v -0.156707 -1.868884 4.234900
v -0.196741 -1.961919 4.234900
v -0.150203 -2.108332 4.234900
v -0.005646 -2.211694 4.234900
v 0.104561 -2.316219 4.234900
v 0.103669 -2.381493 4.234900
v 0.071953 -2.418934 4.234900
v -0.180938 -2.353117 4.234900
v -0.164133 -2.487473 4.234900
v -0.100915 -2.516845 4.234900
v -0.031759 -2.531197 4.234900
v 0.085754 -2.518433 4.234900
v 0.034977 -1.893107 4.234900
vn -0.0000 -0.0000 -1.0000
vn -0.0002 -0.0000 -1.0000
vn 0.0001 -0.0000 -1.0000
vn -0.0000 -0.0000 1.0000
vn -0.0001 -0.0000 1.0000
vn 0.3458 0.9383 -0.0000
vn 0.3909 0.9204 -0.0000
vn -0.6673 -0.7448 -0.0000
vn -0.6452 -0.7641 -0.0000
vn 0.8854 0.4648 -0.0000
vn 0.9712 0.2381 -0.0000
vn 0.1527 0.9883 -0.0000
vn 0.2026 0.9793 -0.0000
vn -0.0992 0.9951 -0.0000
vn -0.0112 0.9999 -0.0000
vn 0.5106 0.8598 -0.0000
vn 0.5617 0.8274 -0.0000
vn -0.0598 -0.9982 -0.0000
vn 0.0072 -1.0000 -0.0000
vn 0.9985 0.0556 -0.0000
vn 0.9314 0.3641 -0.0000
vn -0.5474 0.8369 -0.0000
vn -0.4315 0.9021 -0.0000
vn -0.3113 -0.9503 -0.0000
vn -0.2478 -0.9688 -0.0000
vn 0.4763 0.8793 -0.0000
vn 0.5164 0.8564 -0.0000
vn 0.2828 -0.9592 -0.0000
vn 0.3856 -0.9227 -0.0000
vn -0.5472 -0.8370 -0.0000
vn -0.4924 -0.8703 -0.0000
vn 0.2993 0.9542 -0.0000
vn 0.7737 0.6335 -0.0000
vn 0.6274 0.7787 -0.0000
vn -0.9175 0.3977 -0.0000
vn -0.8490 0.5283 -0.0000
vn 0.0900 -0.9959 -0.0000
vn 0.9918 -0.1282 -0.0000
vn 0.9663 -0.2574 -0.0000
vn 0.1022 0.9948 -0.0000
vn 1.0000 -0.0000 -0.0000
vn 0.8626 -0.5058 -0.0000
vn 0.7860 -0.6182 -0.0000
vn 0.6501 0.7599 -0.0000
vn 0.9482 -0.3175 -0.0000
vn 0.9872 -0.1593 -0.0000
vn -0.9638 -0.2666 -0.0000
vn -0.9994 -0.0352 -0.0000
vn -0.2047 0.9788 -0.0000
vn -0.5624 -0.8268 -0.0000
vn -0.6354 -0.7722 -0.0000
vn -0.6690 -0.7433 -0.0000
vn -0.5764 -0.8172 -0.0000
vn -0.1842 -0.9829 -0.0000
vn -0.9891 0.1472 -0.0000
vn -0.9988 -0.0497 -0.0000
vn 0.5367 0.8438 -0.0000
vn -0.7680 0.6404 -0.0000
vn -0.8467 0.5321 -0.0000
vn 0.2420 -0.9703 -0.0000
vn 0.1202 -0.9928 -0.0000
vn -0.6592 0.7520 -0.0000
vn 0.1842 -0.9829 -0.0000
vn -0.3426 0.9395 -0.0000
vn -0.4598 0.8880 -0.0000
vn -0.9650 0.2624 -0.0000
vn 0.0870 0.9962 -0.0000
vn -0.0048 1.0000 -0.0000
vn 0.7738 0.6335 -0.0000
vn -0.8648 -0.5021 -0.0000
vn 0.4122 0.9111 -0.0000
vn 0.3367 0.9416 -0.0000
vn 0.6952 -0.7188 -0.0000
vn 0.5927 -0.8055 -0.0000
vn -0.5272 -0.8497 -0.0000
vn 0.6596 0.7517 -0.0000
vn 0.6063 0.7953 -0.0000
vn 0.4344 0.9007 -0.0000
vn -0.8047 -0.5937 -0.0000
vn -0.3738 -0.9275 -0.0000
vn -1.0000 -0.0000 -0.0000
vn 0.2515 0.9679 -0.0000
vn 0.9231 -0.3845 -0.0000
vn -0.5982 -0.8014 -0.0000
vn -0.4214 -0.9069 -0.0000
vn -0.4717 -0.8817 -0.0000
vn 0.0512 0.9987 -0.0000
vn 0.4915 -0.8709 -0.0000
vn 0.5986 -0.8011 -0.0000
vn -0.9584 0.2853 -0.0000
vn -0.2033 -0.9791 -0.0000
vn -0.2586 -0.9660 -0.0000
vn -0.6758 0.7371 -0.0000
vn 0.0182 -0.9998 -0.0000
vn -0.0471 -0.9989 -0.0000
vn 0.8845 -0.4665 -0.0000
vn -0.2246 0.9744 -0.0000
vn 0.9997 0.0262 -0.0000
vn -0.3162 0.9487 -0.0000
vn 0.1730 0.9849 -0.0000
vn 0.3632 -0.9317 -0.0000
vn 0.4825 0.8759 -0.0000
vn 0.7074 0.7068 -0.0000
vn -0.7616 0.6481 -0.0000
vn -0.1212 -0.9926 -0.0000
vn -0.9917 0.1285 -0.0000
vn 0.7661 0.6427 -0.0000
vn -0.5623 -0.8269 -0.0000
vn -0.5829 -0.8125 -0.0000
vn -0.7422 -0.6702 -0.0000
vn -0.4344 -0.9007 -0.0000
vn -0.3686 -0.9296 -0.0000
vn -0.5308 -0.8475 -0.0000
vn -0.1491 -0.9888 -0.0000
vn -0.9418 -0.3362 -0.0000
vn -0.9105 0.4135 -0.0000
vn 0.5005 0.8657 -0.0000
vn -0.5721 0.8202 -0.0000
vn 0.4810 -0.8767 -0.0000
vn -0.1096 0.9940 -0.0000
vn 0.2566 0.9665 -0.0000
vn 0.5473 0.8370 -0.0000
vn 0.7500 0.6614 -0.0000
vn -0.5189 -0.8549 -0.0000
vn 0.8007 -0.5990 -0.0000
vn -0.3140 -0.9494 -0.0000
vn -0.0968 -0.9953 -0.0000
vn 0.7033 -0.7109 -0.0000
vn 0.7697 0.6384 -0.0000
vn 0.5358 0.8443 -0.0000
s 1
f 14//1 13//1 12//1
f 14//1 12//1 11//1
f 14//1 11//1 10//1
f 15//1 14//1 10//1
f 15//1 10//1 9//1
f 15//1 9//1 8//1
f 16//1 15//1 8//1
f 16//1 8//1 7//1
f 16//1 7//1 6//1
f 17//1 16//1 6//1
f 17//1 6//1 5//1
f 17//1 5//1 4//1
f 18//1 17//1 4//1
f 18//1 4//1 3//1
f 18//1 3//1 2//1
f 19//1 18//1 2//1
f 19//1 2//1 1//1
f 19//1 1//1 114//1
f 114//1 1//1 115//1
f 115//1 1//1 116//1
f 116//1 1//1 117//1
f 117//1 1//1 118//1
f 118//1 1//1 119//1
f 119//1 1//1 120//1
f 120//1 1//1 121//1
f 121//1 1//1 122//1
f 20//1 19//1 112//1
f 112//1 19//1 113//1
f 113//1 19//1 114//1
f 21//1 20//1 110//1
f 110//1 20//1 111//2
f 111//2 20//1 112//1
f 22//1 21//1 109//1
f 109//1 21//1 110//1
f 22//1 109//1 108//3
f 22//1 108//3 107//1
f 22//1 107//1 106//1
f 22//1 106//1 105//1
f 22//1 105//1 104//1
f 23//1 22//1 104//1
f 23//1 104//1 103//1
f 23//1 103//1 102//1
f 23//1 102//1 101//1
f 24//1 23//1 101//1
f 24//1 101//1 100//1
f 24//1 100//1 99//1
f 25//1 24//1 99//1
f 25//1 99//1 98//1
f 25//1 98//1 97//1
f 26//1 25//1 97//1
f 26//1 97//1 96//1
f 26//1 96//1 95//1
f 27//1 26//1 95//1
f 27//1 95//1 94//1
f 28//1 27//1 94//1
f 28//1 94//1 93//1
f 28//1 93//1 92//1
f 29//1 28//1 92//1
f 29//1 92//1 91//1
f 30//1 29//1 91//1
f 30//1 91//1 90//1
f 31//1 30//1 90//1
f 31//1 90//1 89//1
f 32//1 31//1 89//1
f 32//1 89//1 88//1
f 33//1 32//1 88//1
f 34//1 33//1 88//1
f 34//1 88//1 87//1
f 35//1 34//1 87//1
f 36//1 35//1 87//1
f 36//1 87//1 86//1
f 37//1 36//1 86//1
f 62//1 61//1 60//1
f 37//1 86//1 85//1
f 38//1 37//1 85//1
f 62//1 60//1 59//1
f 39//1 38//1 85//1
f 39//1 85//1 84//1
f 62//1 59//1 58//1
f 40//1 39//1 84//1
f 62//1 58//1 57//1
f 41//1 40//1 84//1
f 42//1 41//1 84//1
f 42//1 84//1 83//1
f 62//1 57//1 56//1
f 43//1 42//1 83//1
f 62//1 56//1 55//1
f 44//1 43//1 83//1
f 62//1 55//1 54//1
f 44//1 83//1 82//1
f 45//1 44//1 82//1
f 62//1 54//1 53//1
f 46//1 45//1 82//1
f 62//1 53//1 52//1
f 47//1 46//1 82//1
f 62//1 52//1 51//1
f 48//1 47//1 82//1
f 62//1 51//1 50//1
f 48//1 82//1 81//1
f 49//1 48//1 81//1
f 62//1 50//1 49//1
f 62//1 49//1 81//1
f 62//1 81//1 80//1
f 63//1 62//1 80//1
f 64//1 63//1 80//1
f 64//1 80//1 79//1
f 65//1 64//1 79//1
f 65//1 79//1 78//1
f 66//1 65//1 78//1
f 67//1 66//1 78//1
f 67//1 78//1 77//1
f 68//1 67//1 77//1
f 69//1 68//1 77//1
f 69//1 77//1 76//1
f 70//1 69//1 76//1
f 71//1 70//1 76//1
f 71//1 76//1 75//1
f 72//1 71//1 75//1
f 73//1 72//1 75//1
f 73//1 75//1 74//1
f 130//4 229//4 129//4
f 130//4 203//4 229//4
f 130//4 128//4 203//4
f 131//4 128//4 130//4
f 131//4 127//4 128//4
f 131//4 228//4 127//4
f 204//4 228//4 131//4
f 204//4 202//4 228//4
f 204//4 126//4 202//4
f 132//4 126//4 204//4
f 132//4 125//4 126//4
f 132//4 227//4 125//4
f 133//4 227//4 132//4
f 133//4 201//4 227//4
f 133//4 124//4 201//4
f 134//4 124//4 133//4
f 134//4 123//4 124//4
f 134//4 188//4 123//4
f 188//4 189//4 123//4
f 189//4 190//4 123//4
f 190//4 191//4 123//4
f 191//4 192//4 123//4
f 192//4 193//4 123//4
f 193//4 194//4 123//4
f 194//4 195//4 123//4
f 195//4 196//4 123//4
f 232//4 244//4 134//4
f 244//4 224//4 134//4
f 224//4 188//4 134//4
f 135//4 187//4 232//4
f 187//4 223//4 232//4
f 223//4 244//4 232//4
f 136//4 186//4 135//4
f 186//4 187//4 135//4
f 136//4 222//5 186//4
f 136//4 221//4 222//5
f 136//4 185//4 221//4
f 136//4 184//4 185//4
f 136//4 220//4 184//4
f 205//4 220//4 136//4
f 205//4 219//4 220//4
f 205//4 183//4 219//4
f 205//4 182//4 183//4
f 233//4 182//4 205//4
f 233//4 230//4 182//4
f 233//4 181//4 230//4
f 139//4 181//4 233//4
f 139//4 180//4 181//4
f 139//4 179//4 180//4
f 140//4 179//4 139//4
f 140//4 218//4 179//4
f 140//4 198//4 218//4
f 197//4 198//4 140//4
f 197//4 178//4 198//4
f 234//4 178//4 197//4
f 234//4 177//4 178//4
f 234//4 176//4 177//4
f 141//4 176//4 234//4
f 141//4 175//4 176//4
f 142//4 175//4 141//4
f 142//4 174//4 175//4
f 206//4 174//4 142//4
f 206//4 173//4 174//4
f 235//4 173//4 206//4
f 235//4 172//4 173//4
f 143//4 172//4 235//4
f 144//4 172//4 143//4
f 144//4 217//4 172//4
f 207//4 217//4 144//4
f 236//4 217//4 207//4
f 236//4 168//4 217//4
f 145//4 168//4 236//4
f 158//4 239//4 157//4
f 145//4 167//4 168//4
f 146//4 167//4 145//4
f 158//4 212//4 239//4
f 209//4 167//4 146//4
f 209//4 171//4 167//4
f 158//4 156//4 212//4
f 237//4 171//4 209//4
f 158//4 155//4 156//4
f 147//4 171//4 237//4
f 148//4 171//4 147//4
f 148//4 208//4 171//4
f 158//4 226//4 155//4
f 210//4 208//4 148//4
f 158//4 200//4 226//4
f 238//4 208//4 210//4
f 158//4 154//4 200//4
f 238//4 138//4 208//4
f 149//4 138//4 238//4
f 158//4 153//4 154//4
f 150//4 138//4 149//4
f 158//4 225//4 153//4
f 211//4 138//4 150//4
f 158//4 199//4 225//4
f 231//4 138//4 211//4
f 158//4 152//4 199//4
f 231//4 137//4 138//4
f 151//4 137//4 231//4
f 158//4 151//4 152//4
f 158//4 137//4 151//4
f 158//4 216//4 137//4
f 213//4 216//4 158//4
f 240//4 216//4 213//4
f 240//4 170//4 216//4
f 159//4 170//4 240//4
f 159//4 169//4 170//4
f 160//4 169//4 159//4
f 214//4 169//4 160//4
f 214//4 243//4 169//4
f 241//4 243//4 214//4
f 161//4 243//4 241//4
f 161//4 166//4 243//4
f 162//4 166//4 161//4
f 215//4 166//4 162//4
f 215//4 165//4 166//4
f 242//4 165//4 215//4
f 163//4 165//4 242//4
f 163//4 164//4 165//4
f 6//6 125//7 5//7
f 122//8 195//9 121//9
f 88//10 217//11 87//11
f 10//12 127//13 9//13
f 14//14 129//15 13//15
f 92//16 175//17 91//17
f 111//18 187//19 110//19
f 98//20 179//21 97//21
f 18//22 132//23 17//23
f 115//24 188//25 114//25
f 3//26 124//27 2//27
f 107//28 185//29 106//29
f 119//30 192//31 118//31
f 7//32 126//6 6//6
f 96//33 198//34 95//34
f 22//35 135//36 21//36
f 110//19 186//37 109//37
f 85//38 171//39 84//39
f 11//40 128//12 10//12
f 1//41 196//41 122//41
f 82//42 137//43 81//43
f 91//17 174//44 90//44
f 100//45 181//46 99//46
f 26//47 139//48 25//48
f 15//49 130//14 14//14
f 30//50 141//51 29//51
f 34//52 143//53 33//53
f 114//25 224//54 113//54
f 38//55 145//56 37//56
f 95//34 178//57 94//57
f 42//58 147//59 41//59
f 76//60 165//61 75//61
f 19//62 133//22 18//22
f 108//63 221//28 107//28
f 46//64 149//65 45//65
f 23//66 136//35 22//35
f 50//67 151//68 49//68
f 97//21 218//69 96//33
f 27//70 140//47 26//47
f 54//71 153//72 53//72
f 80//73 170//74 79//74
f 31//75 142//50 30//50
f 58//76 155//77 57//77
f 4//78 201//26 3//26
f 35//79 144//52 34//52
f 116//80 189//24 115//24
f 62//81 157//81 61//81
f 8//82 202//32 7//32
f 83//83 138//42 82//42
f 120//84 193//30 119//30
f 66//85 159//86 65//86
f 12//87 203//40 11//40
f 105//88 220//89 104//89
f 39//90 146//55 38//55
f 70//91 161//92 69//92
f 43//93 148//58 42//58
f 74//94 163//95 73//95
f 101//96 230//45 100//45
f 109//37 222//63 108//63
f 47//97 150//64 46//64
f 87//11 168//98 86//98
f 16//99 131//49 15//49
f 51//100 152//67 50//67
f 77//101 166//60 76//60
f 55//102 154//71 54//71
f 86//98 167//38 85//38
f 59//103 156//76 58//76
f 20//104 134//62 19//62
f 113//54 244//105 112//105
f 5//7 227//78 4//78
f 24//106 205//66 23//66
f 89//107 172//10 88//10
f 63//108 158//109 62//109
f 9//13 228//82 8//82
f 28//110 197//70 27//70
f 117//111 190//80 116//80
f 67//112 160//85 66//85
f 81//43 216//73 80//73
f 32//113 206//75 31//75
f 121//9 194//84 120//84
f 71//114 162//91 70//91
f 13//15 229//87 12//87
f 36//115 207//79 35//79
f 112//105 223//18 111//18
f 75//61 164//94 74//94
f 40//116 209//90 39//90
f 93//117 176//16 92//16
f 44//118 210//93 43//93
f 79//74 169//119 78//119
f 17//23 204//99 16//99
f 90//44 173//107 89//107
f 48//120 211//97 47//97
f 78//119 243//101 77//101
f 84//39 208//83 83//83
f 21//36 232//104 20//104
f 52//121 199//100 51//100
f 25//48 233//106 24//106
f 94//57 177//117 93//117
f 56//122 200//102 55//102
f 29//51 234//110 28//110
f 60//123 212//103 59//103
f 33//53 235//113 32//113
f 37//56 236//115 36//115
f 64//124 213//108 63//108
f 41//59 237//116 40//116
f 102//125 182//96 101//96
f 68//126 214//112 67//112
f 45//65 238//118 44//118
f 106//29 184//88 105//88
f 72//127 215//114 71//114
f 49//68 231//120 48//120
f 53//72 225//121 52//121
f 104//89 219//128 103//128
f 57//77 226//122 56//122
f 61//129 239//123 60//123
f 99//46 180//20 98//20
f 65//86 240//124 64//124
f 118//31 191//111 117//111
f 103//128 183//125 102//125
f 69//92 241//126 68//126
f 73//95 242//127 72//127
f 2//27 123//130 1//130
f 6//6 126//6 125//7
f 122//8 196//8 195//9
f 88//10 172//10 217//11
f 10//12 128//12 127//13
f 14//14 130//14 129//15
f 92//16 176//16 175//17
f 111//18 223//18 187//19
f 98//20 180//20 179//21
f 18//22 133//22 132//23
f 115//24 189//24 188//25
f 3//26 201//26 124//27
f 107//28 221//28 185//29
f 119//30 193//30 192//31
f 7//32 202//32 126//6
f 96//33 218//69 198//34
f 22//35 136//35 135//36
f 110//19 187//19 186//37
f 85//38 167//38 171//39
f 11//40 203//40 128//12
f 1//41 123//41 196//41
f 82//42 138//42 137//43
f 91//17 175//17 174//44
f 100//45 230//45 181//46
f 26//47 140//47 139//48
f 15//49 131//49 130//14
f 30//50 142//50 141//51
f 34//52 144//52 143//53
f 114//25 188//25 224//54
f 38//55 146//55 145//56
f 95//34 198//34 178//57
f 42//58 148//58 147//59
f 76//60 166//60 165//61
f 19//62 134//62 133//22
f 108//63 222//63 221//28
f 46//64 150//64 149//65
f 23//66 205//66 136//35
f 50//67 152//67 151//68
f 97//21 179//21 218//69
f 27//70 197//70 140//47
f 54//71 154//71 153//72
f 80//73 216//73 170//74
f 31//75 206//75 142//50
f 58//76 156//76 155//77
f 4//78 227//78 201//26
f 35//79 207//79 144//52
f 116//80 190//80 189//24
f 62//81 158//81 157//81
f 8//82 228//82 202//32
f 83//83 208//83 138//42
f 120//84 194//84 193//30
f 66//85 160//85 159//86
f 12//87 229//87 203//40
f 105//88 184//88 220//89
f 39//90 209//90 146//55
f 70//91 162//91 161//92
f 43//93 210//93 148//58
f 74//94 164//94 163//95
f 101//96 182//96 230//45
f 109//37 186//37 222//63
f 47//97 211//97 150//64
f 87//11 217//11 168//98
f 16//99 204//99 131//49
f 51//100 199//100 152//67
f 77//101 243//101 166//60
f 55//102 200//102 154//71
f 86//98 168//98 167//38
f 59//103 212//103 156//76
f 20//104 232//104 134//62
f 113//54 224//54 244//105
f 5//7 125//7 227//78
f 24//106 233//106 205//66
f 89//107 173//107 172//10
f 63//108 213//108 158//109
f 9//13 127//13 228//82
f 28//110 234//110 197//70
f 117//111 191//111 190//80
f 67//112 214//112 160//85
f 81//43 137//43 216//73
f 32//113 235//113 206//75
f 121//9 195//9 194//84
f 71//114 215//114 162//91
f 13//15 129//15 229//87
f 36//115 236//115 207//79
f 112//105 244//105 223//18
f 75//61 165//61 164//94
f 40//116 237//116 209//90
f 93//117 177//117 176//16
f 44//118 238//118 210//93
f 79//74 170//74 169//119
f 17//23 132//23 204//99
f 90//44 174//44 173//107
f 48//120 231//120 211//97
f 78//119 169//119 243//101
f 84//39 171//39 208//83
f 21//36 135//36 232//104
f 52//121 225//121 199//100
f 25//48 139//48 233//106
f 94//57 178//57 177//117
f 56//122 226//122 200//102
f 29//51 141//51 234//110
f 60//123 239//123 212//103
f 33//53 143//53 235//113
f 37//56 145//56 236//115
f 64//124 240//124 213//108
f 41//59 147//59 237//116
f 102//125 183//125 182//96
f 68//126 241//126 214//112
f 45//65 149//65 238//118
f 106//29 185//29 184//88
f 72//127 242//127 215//114
f 49//68 151//68 231//120
f 53//72 153//72 225//121
f 104//89 220//89 219//128
f 57//77 155//77 226//122
f 61//129 157//129 239//123
f 99//46 181//46 180//20
f 65//86 159//86 240//124
f 118//31 192//31 191//111
f 103//128 219//128 183//125
f 69//92 161//92 241//126
f 73//95 163//95 242//127
f 2//27 124//27 123//130
