# Blender 4.0.2
# www.blender.org
o west_mesh
v -1.744396 0.370524 4.145509
v -1.832090 0.370524 4.145509
v -2.000248 -0.099476 4.145509
v -2.172021 0.370524 4.145509
v -2.256100 0.370524 4.145509
v -2.426970 -0.099476 4.145509
v -2.596935 0.370524 4.145509
v -2.685534 0.370524 4.145509
v -2.436010 -0.317476 4.145509
v -2.418833 -0.317476 4.145509
v -2.214513 0.240524 4.145509
v -2.012001 -0.317476 4.145509
v -1.994823 -0.317476 4.145509
v -2.418833 -0.317476 4.232807
v -2.214513 0.240524 4.232807
v -1.744396 0.370524 4.232807
v -1.832090 0.370524 4.232807
v -2.000248 -0.099476 4.232807
v -2.256100 0.370524 4.232807
v -2.426970 -0.099476 4.232807
v -2.436010 -0.317476 4.232807
v -1.994823 -0.317476 4.232807
v -2.012001 -0.317476 4.232807
v -2.596935 0.370524 4.232807
v -2.172021 0.370524 4.232807
v -2.685534 0.370524 4.232807
vn -0.0000 -0.0000 -1.0000
vn -0.0000 -0.0000 1.0000
vn -0.0000 1.0000 -0.0000
vn 0.9397 -0.3420 -0.0000
vn -0.9401 -0.3409 -0.0000
vn -0.9416 0.3369 -0.0000
vn -0.0000 -1.0000 -0.0000
vn 0.9390 -0.3438 -0.0000
vn -0.9400 -0.3412 -0.0000
vn 0.9404 0.3401 -0.0000
vn -0.9398 0.3417 -0.0000
vn 0.9392 0.3433 -0.0000
s 1
f 9//1 8//1 7//1
f 9//1 7//1 6//1
f 6//1 5//1 4//1
f 6//1 4//1 11//1
f 11//1 4//1 3//1
f 3//1 2//1 1//1
f 3//1 1//1 13//1
f 6//1 11//1 10//1
f 12//1 11//1 3//1
f 9//1 6//1 10//1
f 12//1 3//1 13//1
f 21//2 24//2 26//2
f 21//2 20//2 24//2
f 20//2 25//2 19//2
f 20//2 15//2 25//2
f 15//2 18//2 25//2
f 18//2 16//2 17//2
f 18//2 22//2 16//2
f 20//2 14//2 15//2
f 23//2 18//2 15//2
f 21//2 14//2 20//2
f 23//2 22//2 18//2
f 8//3 24//3 7//3
f 1//4 22//4 13//4
f 9//5 26//5 8//5
f 3//6 17//6 2//6
f 13//7 23//7 12//7
f 11//8 14//8 10//8
f 12//9 15//9 11//9
f 7//10 20//10 6//10
f 2//3 16//3 1//3
f 6//11 19//11 5//11
f 5//3 25//3 4//3
f 4//12 18//12 3//12
f 10//7 21//7 9//7
f 8//3 26//3 24//3
f 1//4 16//4 22//4
f 9//5 21//5 26//5
f 3//6 18//6 17//6
f 13//7 22//7 23//7
f 11//8 15//8 14//8
f 12//9 23//9 15//9
f 7//10 24//10 20//10
f 2//3 17//3 16//3
f 6//11 20//11 19//11
f 5//3 19//3 25//3
f 4//12 25//12 18//12
f 10//7 14//7 21//7
