# Blender 4.0.2
# www.blender.org
o z_arrow
v 0.000000 0.131407 0.335830
v 0.000000 0.131407 3.347682
v 0.025636 0.128882 0.335830
v 0.025636 0.128882 3.347682
v 0.050287 0.121404 0.335830
v 0.050287 0.121404 3.347682
v 0.073006 0.109261 0.335830
v 0.073006 0.109261 3.347682
v 0.092919 0.092919 0.335830
v 0.092919 0.092919 3.347682
v 0.109261 0.073006 0.335830
v 0.109261 0.073006 3.347682
v 0.121404 0.050287 0.335830
v 0.121404 0.050287 3.347682
v 0.128882 0.025636 0.335830
v 0.128882 0.025636 3.347682
v 0.131407 0.000000 0.335830
v 0.131407 0.000000 3.347682
v 0.128882 -0.025636 0.335830
v 0.128882 -0.025636 3.347682
v 0.121404 -0.050287 0.335830
v 0.121404 -0.050287 3.347682
v 0.109261 -0.073006 0.335830
v 0.109261 -0.073006 3.347682
v 0.092919 -0.092919 0.335830
v 0.092919 -0.092919 3.347682
v 0.073006 -0.109261 0.335830
v 0.073006 -0.109261 3.347682
v 0.050287 -0.121404 0.335830
v 0.050287 -0.121404 3.347682
v 0.025636 -0.128882 0.335830
v 0.025636 -0.128882 3.347682
v 0.000000 -0.131407 0.335830
v 0.000000 -0.131407 3.347682
v -0.025636 -0.128882 0.335830
v -0.025636 -0.128882 3.347682
v -0.050287 -0.121404 0.335830
v -0.050287 -0.121404 3.347682
v -0.073006 -0.109261 0.335830
v -0.073006 -0.109261 3.347682
v -0.092919 -0.092919 0.335830
v -0.092919 -0.092919 3.347682
v -0.109261 -0.073006 0.335830
v -0.109261 -0.073006 3.347682
v -0.121404 -0.050287 0.335830
v -0.121404 -0.050287 3.347682
v -0.128882 -0.025636 0.335830
v -0.128882 -0.025636 3.347682
v -0.131407 0.000000 0.335830
v -0.131407 0.000000 3.347682
v -0.128882 0.025636 0.335830
v -0.128882 0.025636 3.347682
v -0.121404 0.050287 0.335830
v -0.121404 0.050287 3.347682
v -0.109261 0.073006 0.335830
v -0.109261 0.073006 3.347682
v -0.092919 0.092919 0.335830
v -0.092919 0.092919 3.347682
v -0.073006 0.109261 0.335830
v -0.073006 0.109261 3.347682
v -0.050287 0.121404 0.335830
v -0.050287 0.121404 3.347682
v -0.025636 0.128882 0.335830
v -0.025636 0.128882 3.347682
v -0.000000 0.257011 3.347682
v 0.050140 0.252073 3.347682
v 0.098354 0.237448 3.347682
v 0.142788 0.213697 3.347682
v 0.181735 0.181735 3.347682
v 0.213697 0.142788 3.347682
v 0.237448 0.098354 3.347682
v 0.252073 0.050140 3.347682
v 0.257011 0.000000 3.347682
v 0.252073 -0.050140 3.347682
v 0.237448 -0.098354 3.347682
v 0.213697 -0.142788 3.347682
v 0.181735 -0.181735 3.347682
v 0.142788 -0.213697 3.347682
v 0.098354 -0.237448 3.347682
v 0.050140 -0.252073 3.347682
v -0.000000 -0.257011 3.347682
v -0.050140 -0.252073 3.347682
v -0.098354 -0.237448 3.347682
v -0.142788 -0.213697 3.347682
v -0.181735 -0.181735 3.347682
v -0.213697 -0.142788 3.347682
v -0.237448 -0.098354 3.347682
v -0.252073 -0.050140 3.347682
v -0.257011 0.000000 3.347682
v -0.252073 0.050140 3.347682
v -0.237448 0.098354 3.347682
v -0.213697 0.142788 3.347682
v -0.181735 0.181735 3.347682
v -0.142788 0.213697 3.347682
v -0.098354 0.237448 3.347682
v -0.050140 0.252073 3.347682
v 0.000000 0.000000 4.163165
vn -0.0000 1.0000 -0.0000
vn 0.1951 0.9808 -0.0000
vn 0.3827 0.9239 -0.0000
vn 0.5556 0.8315 -0.0000
vn 0.7071 0.7071 -0.0000
vn 0.8315 0.5556 -0.0000
vn 0.9239 0.3827 -0.0000
vn 0.9808 0.1951 -0.0000
vn 1.0000 -0.0000 -0.0000
vn 0.9808 -0.1951 -0.0000
vn 0.9239 -0.3827 -0.0000
vn 0.8315 -0.5556 -0.0000
vn 0.7071 -0.7071 -0.0000
vn 0.5556 -0.8315 -0.0000
vn 0.3827 -0.9239 -0.0000
vn 0.1951 -0.9808 -0.0000
vn -0.0000 -1.0000 -0.0000
vn -0.1951 -0.9808 -0.0000
vn -0.3827 -0.9239 -0.0000
vn -0.5556 -0.8315 -0.0000
vn -0.7071 -0.7071 -0.0000
vn -0.8315 -0.5556 -0.0000
vn -0.9239 -0.3827 -0.0000
vn -0.9808 -0.1951 -0.0000
vn -1.0000 -0.0000 -0.0000
vn -0.9808 0.1951 -0.0000
vn -0.9239 0.3827 -0.0000
vn -0.8315 0.5556 -0.0000
vn -0.7071 0.7071 -0.0000
vn -0.5556 0.8315 -0.0000
vn -0.3827 0.9239 -0.0000
vn -0.0000 -0.0000 -1.0000
vn -0.1951 0.9808 -0.0000
vn 0.1861 -0.9354 0.3006
vn 0.3650 -0.8812 0.3006
vn -0.0000 -0.0000 1.0000
vn 0.3650 0.8812 0.3006
vn 0.1861 0.9354 0.3006
vn -0.5299 0.7930 0.3006
vn -0.6744 0.6744 0.3006
vn -0.0000 -0.9538 0.3006
vn 0.5299 0.7930 0.3006
vn -0.3650 0.8812 0.3006
vn -0.1861 -0.9354 0.3006
vn 0.6744 0.6744 0.3006
vn -0.1861 0.9354 0.3006
vn -0.3650 -0.8812 0.3006
vn 0.7930 0.5299 0.3006
vn -0.0000 0.9538 0.3006
vn -0.5299 -0.7930 0.3006
vn 0.8812 0.3650 0.3006
vn -0.6744 -0.6744 0.3006
vn 0.9354 0.1861 0.3006
vn -0.7930 -0.5299 0.3006
vn 0.9538 -0.0000 0.3006
vn -0.8812 -0.3650 0.3006
vn 0.9354 -0.1861 0.3006
vn -0.9354 -0.1861 0.3006
vn 0.8812 -0.3650 0.3006
vn -0.9538 -0.0000 0.3006
vn 0.7930 -0.5299 0.3006
vn -0.9354 0.1861 0.3006
vn 0.6744 -0.6744 0.3006
vn -0.8812 0.3650 0.3006
vn 0.5299 -0.7930 0.3006
vn -0.7930 0.5299 0.3006
s 1
f 2//1 3//2 1//1
f 4//2 5//3 3//2
f 6//3 7//4 5//3
f 8//4 9//5 7//4
f 10//5 11//6 9//5
f 12//6 13//7 11//6
f 14//7 15//8 13//7
f 16//8 17//9 15//8
f 18//9 19//10 17//9
f 20//10 21//11 19//10
f 22//11 23//12 21//11
f 24//12 25//13 23//12
f 26//13 27//14 25//13
f 28//14 29//15 27//14
f 30//15 31//16 29//15
f 32//16 33//17 31//16
f 34//17 35//18 33//17
f 36//18 37//19 35//18
f 38//19 39//20 37//19
f 40//20 41//21 39//20
f 42//21 43//22 41//21
f 44//22 45//23 43//22
f 46//23 47//24 45//23
f 48//24 49//25 47//24
f 50//25 51//26 49//25
f 52//26 53//27 51//26
f 54//27 55//28 53//27
f 56//28 57//29 55//28
f 58//29 59//30 57//29
f 60//30 61//31 59//30
f 56//32 93//32 58//32
f 62//31 63//33 61//31
f 64//33 1//1 63//33
f 31//32 47//32 63//32
f 14//32 70//32 71//32
f 32//32 79//32 80//32
f 48//32 89//32 50//32
f 4//32 67//32 6//32
f 22//32 76//32 24//32
f 40//32 85//32 42//32
f 58//32 94//32 60//32
f 16//32 71//32 72//32
f 32//32 81//32 34//32
f 50//32 90//32 52//32
f 6//32 68//32 8//32
f 24//32 77//32 26//32
f 42//32 86//32 44//32
f 62//32 94//32 95//32
f 16//32 73//32 18//32
f 34//32 82//32 36//32
f 52//32 91//32 54//32
f 8//32 69//32 10//32
f 26//32 78//32 28//32
f 46//32 86//32 87//32
f 64//32 95//32 96//32
f 18//32 74//32 20//32
f 36//32 83//32 38//32
f 54//32 92//32 56//32
f 10//32 70//32 12//32
f 30//32 78//32 79//32
f 48//32 87//32 88//32
f 2//32 66//32 4//32
f 64//32 65//32 2//32
f 20//32 75//32 22//32
f 38//32 84//32 40//32
f 80//34 79//35 97//36
f 67//37 66//38 97//36
f 94//39 93//40 97//36
f 81//41 80//34 97//36
f 68//42 67//37 97//36
f 95//43 94//39 97//36
f 82//44 81//41 97//36
f 69//45 68//42 97//36
f 96//46 95//43 97//36
f 83//47 82//44 97//36
f 70//48 69//45 97//36
f 65//49 96//46 97//36
f 84//50 83//47 97//36
f 71//51 70//48 97//36
f 85//52 84//50 97//36
f 72//53 71//51 97//36
f 86//54 85//52 97//36
f 73//55 72//53 97//36
f 87//56 86//54 97//36
f 74//57 73//55 97//36
f 88//58 87//56 97//36
f 75//59 74//57 97//36
f 89//60 88//58 97//36
f 76//61 75//59 97//36
f 90//62 89//60 97//36
f 77//63 76//61 97//36
f 91//64 90//62 97//36
f 78//65 77//63 97//36
f 92//66 91//64 97//36
f 79//35 78//65 97//36
f 66//38 65//49 97//36
f 93//40 92//66 97//36
f 2//1 4//2 3//2
f 4//2 6//3 5//3
f 6//3 8//4 7//4
f 8//4 10//5 9//5
f 10//5 12//6 11//6
f 12//6 14//7 13//7
f 14//7 16//8 15//8
f 16//8 18//9 17//9
f 18//9 20//10 19//10
f 20//10 22//11 21//11
f 22//11 24//12 23//12
f 24//12 26//13 25//13
f 26//13 28//14 27//14
f 28//14 30//15 29//15
f 30//15 32//16 31//16
f 32//16 34//17 33//17
f 34//17 36//18 35//18
f 36//18 38//19 37//19
f 38//19 40//20 39//20
f 40//20 42//21 41//21
f 42//21 44//22 43//22
f 44//22 46//23 45//23
f 46//23 48//24 47//24
f 48//24 50//25 49//25
f 50//25 52//26 51//26
f 52//26 54//27 53//27
f 54//27 56//28 55//28
f 56//28 58//29 57//29
f 58//29 60//30 59//30
f 60//30 62//31 61//31
f 56//32 92//32 93//32
f 62//31 64//33 63//33
f 64//33 2//1 1//1
f 63//32 1//32 3//32
f 3//32 5//32 7//32
f 7//32 9//32 11//32
f 11//32 13//32 15//32
f 15//32 17//32 19//32
f 19//32 21//32 23//32
f 23//32 25//32 27//32
f 27//32 29//32 31//32
f 31//32 33//32 35//32
f 35//32 37//32 39//32
f 39//32 41//32 43//32
f 43//32 45//32 47//32
f 47//32 49//32 51//32
f 51//32 53//32 55//32
f 55//32 57//32 59//32
f 59//32 61//32 63//32
f 63//32 3//32 7//32
f 7//32 11//32 15//32
f 15//32 19//32 23//32
f 23//32 27//32 31//32
f 31//32 35//32 39//32
f 39//32 43//32 47//32
f 47//32 51//32 55//32
f 55//32 59//32 63//32
f 63//32 7//32 15//32
f 15//32 23//32 31//32
f 31//32 39//32 47//32
f 47//32 55//32 63//32
f 63//32 15//32 31//32
f 14//32 12//32 70//32
f 32//32 30//32 79//32
f 48//32 88//32 89//32
f 4//32 66//32 67//32
f 22//32 75//32 76//32
f 40//32 84//32 85//32
f 58//32 93//32 94//32
f 16//32 14//32 71//32
f 32//32 80//32 81//32
f 50//32 89//32 90//32
f 6//32 67//32 68//32
f 24//32 76//32 77//32
f 42//32 85//32 86//32
f 62//32 60//32 94//32
f 16//32 72//32 73//32
f 34//32 81//32 82//32
f 52//32 90//32 91//32
f 8//32 68//32 69//32
f 26//32 77//32 78//32
f 46//32 44//32 86//32
f 64//32 62//32 95//32
f 18//32 73//32 74//32
f 36//32 82//32 83//32
f 54//32 91//32 92//32
f 10//32 69//32 70//32
f 30//32 28//32 78//32
f 48//32 46//32 87//32
f 2//32 65//32 66//32
f 64//32 96//32 65//32
f 20//32 74//32 75//32
f 38//32 83//32 84//32
