# Blender v2.93.1 OBJ File: ''
# www.blender.org
o Cylinder_Cylinder.002
v 0.000000 1.000000 -1.000000
v 0.000000 1.000000 1.000000
v 0.098017 0.995185 -1.000000
v 0.098017 0.995185 1.000000
v 0.195090 0.980785 -1.000000
v 0.195090 0.980785 1.000000
v 0.290285 0.956940 -1.000000
v 0.290285 0.956940 1.000000
v 0.382683 0.923880 -1.000000
v 0.382683 0.923879 1.000000
v 0.471397 0.881921 -1.000000
v 0.471397 0.881921 1.000000
v 0.555570 0.831470 -1.000000
v 0.555570 0.831470 1.000000
v 0.634393 0.773011 -1.000000
v 0.634393 0.773010 1.000000
v 0.707107 0.707107 -1.000000
v 0.707107 0.707107 1.000000
v 0.773010 0.634393 -1.000000
v 0.773010 0.634393 1.000000
v 0.831470 0.555570 -1.000000
v 0.831470 0.555570 1.000000
v 0.881921 0.471397 -1.000000
v 0.881921 0.471397 1.000000
v 0.923880 0.382683 -1.000000
v 0.923880 0.382683 1.000000
v 0.956940 0.290285 -1.000000
v 0.956940 0.290285 1.000000
v 0.980785 0.195090 -1.000000
v 0.980785 0.195090 1.000000
v 0.995185 0.098017 -1.000000
v 0.995185 0.098017 1.000000
v 1.000000 0.000000 -1.000000
v 1.000000 -0.000000 1.000000
v 0.995185 -0.098017 -1.000000
v 0.995185 -0.098017 1.000000
v 0.980785 -0.195090 -1.000000
v 0.980785 -0.195090 1.000000
v 0.956940 -0.290285 -1.000000
v 0.956940 -0.290285 1.000000
v 0.923880 -0.382683 -1.000000
v 0.923880 -0.382683 1.000000
v 0.881921 -0.471397 -1.000000
v 0.881921 -0.471397 1.000000
v 0.831470 -0.555570 -1.000000
v 0.831470 -0.555570 1.000000
v 0.773010 -0.634393 -1.000000
v 0.773010 -0.634393 1.000000
v 0.707107 -0.707107 -1.000000
v 0.707107 -0.707107 1.000000
v 0.634393 -0.773010 -1.000000
v 0.634393 -0.773011 1.000000
v 0.555570 -0.831470 -1.000000
v 0.555570 -0.831470 1.000000
v 0.471397 -0.881921 -1.000000
v 0.471397 -0.881921 1.000000
v 0.382683 -0.923879 -1.000000
v 0.382683 -0.923880 1.000000
v 0.290285 -0.956940 -1.000000
v 0.290285 -0.956940 1.000000
v 0.195090 -0.980785 -1.000000
v 0.195090 -0.980785 1.000000
v 0.098017 -0.995185 -1.000000
v 0.098017 -0.995185 1.000000
v -0.000000 -1.000000 -1.000000
v -0.000000 -1.000000 1.000000
v -0.098017 -0.995185 -1.000000
v -0.098017 -0.995185 1.000000
v -0.195090 -0.980785 -1.000000
v -0.195090 -0.980785 1.000000
v -0.290285 -0.956940 -1.000000
v -0.290285 -0.956940 1.000000
v -0.382683 -0.923879 -1.000000
v -0.382683 -0.923880 1.000000
v -0.471397 -0.881921 -1.000000
v -0.471397 -0.881921 1.000000
v -0.555570 -0.831469 -1.000000
v -0.555570 -0.831470 1.000000
v -0.634393 -0.773010 -1.000000
v -0.634393 -0.773011 1.000000
v -0.707107 -0.707107 -1.000000
v -0.707107 -0.707107 1.000000
v -0.773010 -0.634393 -1.000000
v -0.773010 -0.634393 1.000000
v -0.831469 -0.555570 -1.000000
v -0.831469 -0.555570 1.000000
v -0.881921 -0.471397 -1.000000
v -0.881921 -0.471397 1.000000
v -0.923880 -0.382684 -1.000000
v -0.923880 -0.382684 1.000000
v -0.956940 -0.290285 -1.000000
v -0.956940 -0.290285 1.000000
v -0.980785 -0.195090 -1.000000
v -0.980785 -0.195090 1.000000
v -0.995185 -0.098017 -1.000000
v -0.995185 -0.098017 1.000000
v -1.000000 0.000000 -1.000000
v -1.000000 -0.000000 1.000000
v -0.995185 0.098017 -1.000000
v -0.995185 0.098017 1.000000
v -0.980785 0.195090 -1.000000
v -0.980785 0.195090 1.000000
v -0.956940 0.290285 -1.000000
v -0.956940 0.290285 1.000000
v -0.923879 0.382684 -1.000000
v -0.923879 0.382684 1.000000
v -0.881921 0.471397 -1.000000
v -0.881921 0.471397 1.000000
v -0.831470 0.555570 -1.000000
v -0.831470 0.555570 1.000000
v -0.773010 0.634393 -1.000000
v -0.773010 0.634393 1.000000
v -0.707107 0.707107 -1.000000
v -0.707107 0.707107 1.000000
v -0.634393 0.773011 -1.000000
v -0.634393 0.773010 1.000000
v -0.555570 0.831470 -1.000000
v -0.555570 0.831470 1.000000
v -0.471397 0.881921 -1.000000
v -0.471397 0.881921 1.000000
v -0.382683 0.923880 -1.000000
v -0.382683 0.923880 1.000000
v -0.290285 0.956940 -1.000000
v -0.290285 0.956940 1.000000
v -0.195090 0.980785 -1.000000
v -0.195090 0.980785 1.000000
v -0.098017 0.995185 -1.000000
v -0.098017 0.995185 1.000000
v 0.000000 1.000000 -1.000000
v 0.000000 1.000000 1.000000
v 0.098017 0.995185 -1.000000
v 0.098017 0.995185 1.000000
v 0.195090 0.980785 -1.000000
v 0.195090 0.980785 1.000000
v 0.290285 0.956940 -1.000000
v 0.290285 0.956940 1.000000
v 0.382683 0.923880 -1.000000
v 0.382683 0.923879 1.000000
v 0.471397 0.881921 -1.000000
v 0.471397 0.881921 1.000000
v 0.555570 0.831470 -1.000000
v 0.555570 0.831470 1.000000
v 0.634393 0.773011 -1.000000
v 0.634393 0.773010 1.000000
v 0.707107 0.707107 -1.000000
v 0.707107 0.707107 1.000000
v 0.773010 0.634393 -1.000000
v 0.773010 0.634393 1.000000
v 0.831470 0.555570 -1.000000
v 0.831470 0.555570 1.000000
v 0.881921 0.471397 -1.000000
v 0.881921 0.471397 1.000000
v 0.923880 0.382683 -1.000000
v 0.923880 0.382683 1.000000
v 0.956940 0.290285 -1.000000
v 0.956940 0.290285 1.000000
v 0.980785 0.195090 -1.000000
v 0.980785 0.195090 1.000000
v 0.995185 0.098017 -1.000000
v 0.995185 0.098017 1.000000
v 1.000000 0.000000 -1.000000
v 1.000000 -0.000000 1.000000
v 0.995185 -0.098017 -1.000000
v 0.995185 -0.098017 1.000000
v 0.980785 -0.195090 -1.000000
v 0.980785 -0.195090 1.000000
v 0.956940 -0.290285 -1.000000
v 0.956940 -0.290285 1.000000
v 0.923880 -0.382683 -1.000000
v 0.923880 -0.382683 1.000000
v 0.881921 -0.471397 -1.000000
v 0.881921 -0.471397 1.000000
v 0.831470 -0.555570 -1.000000
v 0.831470 -0.555570 1.000000
v 0.773010 -0.634393 -1.000000
v 0.773010 -0.634393 1.000000
v 0.707107 -0.707107 -1.000000
v 0.707107 -0.707107 1.000000
v 0.634393 -0.773010 -1.000000
v 0.634393 -0.773011 1.000000
v 0.555570 -0.831470 -1.000000
v 0.555570 -0.831470 1.000000
v 0.471397 -0.881921 -1.000000
v 0.471397 -0.881921 1.000000
v 0.382683 -0.923879 -1.000000
v 0.382683 -0.923880 1.000000
v 0.290285 -0.956940 -1.000000
v 0.290285 -0.956940 1.000000
v 0.195090 -0.980785 -1.000000
v 0.195090 -0.980785 1.000000
v 0.098017 -0.995185 -1.000000
v 0.098017 -0.995185 1.000000
v -0.000000 -1.000000 -1.000000
v -0.000000 -1.000000 1.000000
v -0.098017 -0.995185 -1.000000
v -0.098017 -0.995185 1.000000
v -0.195090 -0.980785 -1.000000
v -0.195090 -0.980785 1.000000
v -0.290285 -0.956940 -1.000000
v -0.290285 -0.956940 1.000000
v -0.382683 -0.923879 -1.000000
v -0.382683 -0.923880 1.000000
v -0.471397 -0.881921 -1.000000
v -0.471397 -0.881921 1.000000
v -0.555570 -0.831469 -1.000000
v -0.555570 -0.831470 1.000000
v -0.634393 -0.773010 -1.000000
v -0.634393 -0.773011 1.000000
v -0.707107 -0.707107 -1.000000
v -0.707107 -0.707107 1.000000
v -0.773010 -0.634393 -1.000000
v -0.773010 -0.634393 1.000000
v -0.831469 -0.555570 -1.000000
v -0.831469 -0.555570 1.000000
v -0.881921 -0.471397 -1.000000
v -0.881921 -0.471397 1.000000
v -0.923880 -0.382684 -1.000000
v -0.923880 -0.382684 1.000000
v -0.956940 -0.290285 -1.000000
v -0.956940 -0.290285 1.000000
v -0.980785 -0.195090 -1.000000
v -0.980785 -0.195090 1.000000
v -0.995185 -0.098017 -1.000000
v -0.995185 -0.098017 1.000000
v -1.000000 0.000000 -1.000000
v -1.000000 -0.000000 1.000000
v -0.995185 0.098017 -1.000000
v -0.995185 0.098017 1.000000
v -0.980785 0.195090 -1.000000
v -0.980785 0.195090 1.000000
v -0.956940 0.290285 -1.000000
v -0.956940 0.290285 1.000000
v -0.923879 0.382684 -1.000000
v -0.923879 0.382684 1.000000
v -0.881921 0.471397 -1.000000
v -0.881921 0.471397 1.000000
v -0.831470 0.555570 -1.000000
v -0.831470 0.555570 1.000000
v -0.773010 0.634393 -1.000000
v -0.773010 0.634393 1.000000
v -0.707107 0.707107 -1.000000
v -0.707107 0.707107 1.000000
v -0.634393 0.773011 -1.000000
v -0.634393 0.773010 1.000000
v -0.555570 0.831470 -1.000000
v -0.555570 0.831470 1.000000
v -0.471397 0.881921 -1.000000
v -0.471397 0.881921 1.000000
v -0.382683 0.923880 -1.000000
v -0.382683 0.923880 1.000000
v -0.290285 0.956940 -1.000000
v -0.290285 0.956940 1.000000
v -0.195090 0.980785 -1.000000
v -0.195090 0.980785 1.000000
v -0.098017 0.995185 -1.000000
v -0.098017 0.995185 1.000000
vn 0.0000 1.0000 0.0000
vn 0.0980 0.9952 0.0000
vn 0.1951 0.9808 0.0000
vn 0.2903 0.9569 0.0000
vn 0.3827 0.9239 0.0000
vn 0.4714 0.8819 0.0000
vn 0.5556 0.8314 0.0000
vn 0.6344 0.7730 0.0000
vn 0.7071 0.7071 0.0000
vn 0.7730 0.6344 0.0000
vn 0.8314 0.5556 0.0000
vn 0.8819 0.4714 0.0000
vn 0.9239 0.3827 0.0000
vn 0.9569 0.2903 0.0000
vn 0.9808 0.1951 0.0000
vn 0.9952 0.0980 0.0000
vn 1.0000 0.0000 0.0000
vn 0.9952 -0.0980 0.0000
vn 0.9808 -0.1951 0.0000
vn 0.9569 -0.2903 0.0000
vn 0.9239 -0.3827 0.0000
vn 0.8819 -0.4714 0.0000
vn 0.8314 -0.5556 0.0000
vn 0.7730 -0.6344 0.0000
vn 0.7071 -0.7071 0.0000
vn 0.6344 -0.7730 0.0000
vn 0.5556 -0.8314 0.0000
vn 0.4714 -0.8819 0.0000
vn 0.3827 -0.9239 0.0000
vn 0.2903 -0.9569 0.0000
vn 0.1951 -0.9808 0.0000
vn 0.0980 -0.9952 0.0000
vn 0.0000 -1.0000 0.0000
vn -0.0980 -0.9952 0.0000
vn -0.1951 -0.9808 0.0000
vn -0.2903 -0.9569 0.0000
vn -0.3827 -0.9239 0.0000
vn -0.4714 -0.8819 0.0000
vn -0.5556 -0.8314 0.0000
vn -0.6344 -0.7730 0.0000
vn -0.7071 -0.7071 0.0000
vn -0.7730 -0.6344 0.0000
vn -0.8314 -0.5556 0.0000
vn -0.8819 -0.4714 0.0000
vn -0.9239 -0.3827 0.0000
vn -0.9569 -0.2903 0.0000
vn -0.9808 -0.1951 0.0000
vn -0.9952 -0.0980 0.0000
vn -1.0000 0.0000 0.0000
vn -0.9952 0.0980 0.0000
vn -0.9808 0.1951 0.0000
vn -0.9569 0.2903 0.0000
vn -0.9239 0.3827 0.0000
vn -0.8819 0.4714 0.0000
vn -0.8314 0.5556 0.0000
vn -0.7730 0.6344 0.0000
vn -0.7071 0.7071 0.0000
vn -0.6344 0.7730 0.0000
vn -0.5556 0.8314 0.0000
vn -0.4714 0.8819 0.0000
vn -0.3827 0.9239 0.0000
vn -0.2903 0.9569 0.0000
vn -0.1951 0.9808 0.0000
vn -0.0980 0.9952 0.0000
vn 0.0000 0.0000 1.0000
vn 0.0000 0.0000 -1.0000
s 1
f 2//1 3//2 1//1
f 4//2 5//3 3//2
f 6//3 7//4 5//3
f 8//4 9//5 7//4
f 10//5 11//6 9//5
f 12//6 13//7 11//6
f 14//7 15//8 13//7
f 16//8 17//9 15//8
f 18//9 19//10 17//9
f 20//10 21//11 19//10
f 22//11 23//12 21//11
f 24//12 25//13 23//12
f 26//13 27//14 25//13
f 28//14 29//15 27//14
f 30//15 31//16 29//15
f 32//16 33//17 31//16
f 34//17 35//18 33//17
f 36//18 37//19 35//18
f 38//19 39//20 37//19
f 40//20 41//21 39//20
f 42//21 43//22 41//21
f 44//22 45//23 43//22
f 46//23 47//24 45//23
f 48//24 49//25 47//24
f 50//25 51//26 49//25
f 52//26 53//27 51//26
f 54//27 55//28 53//27
f 56//28 57//29 55//28
f 58//29 59//30 57//29
f 60//30 61//31 59//30
f 62//31 63//32 61//31
f 64//32 65//33 63//32
f 66//33 67//34 65//33
f 68//34 69//35 67//34
f 70//35 71//36 69//35
f 72//36 73//37 71//36
f 74//37 75//38 73//37
f 76//38 77//39 75//38
f 78//39 79//40 77//39
f 80//40 81//41 79//40
f 82//41 83//42 81//41
f 84//42 85//43 83//42
f 86//43 87//44 85//43
f 88//44 89//45 87//44
f 90//45 91//46 89//45
f 92//46 93//47 91//46
f 94//47 95//48 93//47
f 96//48 97//49 95//48
f 98//49 99//50 97//49
f 100//50 101//51 99//50
f 102//51 103//52 101//51
f 104//52 105//53 103//52
f 106//53 107//54 105//53
f 108//54 109//55 107//54
f 110//55 111//56 109//55
f 112//56 113//57 111//56
f 114//57 115//58 113//57
f 116//58 117//59 115//58
f 118//59 119//60 117//59
f 120//60 121//61 119//60
f 122//61 123//62 121//61
f 124//62 125//63 123//62
f 126//63 127//64 125//63
f 128//64 1//1 127//64
f 198//65 166//65 134//65
f 159//66 191//66 223//66
f 2//1 4//2 3//2
f 4//2 6//3 5//3
f 6//3 8//4 7//4
f 8//4 10//5 9//5
f 10//5 12//6 11//6
f 12//6 14//7 13//7
f 14//7 16//8 15//8
f 16//8 18//9 17//9
f 18//9 20//10 19//10
f 20//10 22//11 21//11
f 22//11 24//12 23//12
f 24//12 26//13 25//13
f 26//13 28//14 27//14
f 28//14 30//15 29//15
f 30//15 32//16 31//16
f 32//16 34//17 33//17
f 34//17 36//18 35//18
f 36//18 38//19 37//19
f 38//19 40//20 39//20
f 40//20 42//21 41//21
f 42//21 44//22 43//22
f 44//22 46//23 45//23
f 46//23 48//24 47//24
f 48//24 50//25 49//25
f 50//25 52//26 51//26
f 52//26 54//27 53//27
f 54//27 56//28 55//28
f 56//28 58//29 57//29
f 58//29 60//30 59//30
f 60//30 62//31 61//31
f 62//31 64//32 63//32
f 64//32 66//33 65//33
f 66//33 68//34 67//34
f 68//34 70//35 69//35
f 70//35 72//36 71//36
f 72//36 74//37 73//37
f 74//37 76//38 75//38
f 76//38 78//39 77//39
f 78//39 80//40 79//40
f 80//40 82//41 81//41
f 82//41 84//42 83//42
f 84//42 86//43 85//43
f 86//43 88//44 87//44
f 88//44 90//45 89//45
f 90//45 92//46 91//46
f 92//46 94//47 93//47
f 94//47 96//48 95//48
f 96//48 98//49 97//49
f 98//49 100//50 99//50
f 100//50 102//51 101//51
f 102//51 104//52 103//52
f 104//52 106//53 105//53
f 106//53 108//54 107//54
f 108//54 110//55 109//55
f 110//55 112//56 111//56
f 112//56 114//57 113//57
f 114//57 116//58 115//58
f 116//58 118//59 117//59
f 118//59 120//60 119//60
f 120//60 122//61 121//61
f 122//61 124//62 123//62
f 124//62 126//63 125//63
f 126//63 128//64 127//64
f 128//64 2//1 1//1
f 134//65 132//65 130//65
f 130//65 256//65 134//65
f 256//65 254//65 134//65
f 254//65 252//65 250//65
f 250//65 248//65 254//65
f 248//65 246//65 254//65
f 246//65 244//65 238//65
f 244//65 242//65 238//65
f 242//65 240//65 238//65
f 238//65 236//65 234//65
f 234//65 232//65 230//65
f 230//65 228//65 226//65
f 226//65 224//65 230//65
f 224//65 222//65 230//65
f 222//65 220//65 214//65
f 220//65 218//65 214//65
f 218//65 216//65 214//65
f 214//65 212//65 210//65
f 210//65 208//65 206//65
f 206//65 204//65 202//65
f 202//65 200//65 198//65
f 198//65 196//65 194//65
f 194//65 192//65 190//65
f 190//65 188//65 186//65
f 186//65 184//65 182//65
f 182//65 180//65 178//65
f 178//65 176//65 174//65
f 174//65 172//65 166//65
f 172//65 170//65 166//65
f 170//65 168//65 166//65
f 166//65 164//65 158//65
f 164//65 162//65 158//65
f 162//65 160//65 158//65
f 158//65 156//65 154//65
f 154//65 152//65 150//65
f 150//65 148//65 142//65
f 148//65 146//65 142//65
f 146//65 144//65 142//65
f 142//65 140//65 138//65
f 138//65 136//65 134//65
f 238//65 234//65 230//65
f 214//65 210//65 206//65
f 206//65 202//65 198//65
f 198//65 194//65 182//65
f 194//65 190//65 182//65
f 190//65 186//65 182//65
f 182//65 178//65 166//65
f 178//65 174//65 166//65
f 158//65 154//65 150//65
f 142//65 138//65 134//65
f 134//65 254//65 246//65
f 246//65 238//65 134//65
f 238//65 230//65 134//65
f 230//65 222//65 198//65
f 222//65 214//65 198//65
f 214//65 206//65 198//65
f 166//65 158//65 134//65
f 158//65 150//65 134//65
f 150//65 142//65 134//65
f 198//65 182//65 166//65
f 134//65 230//65 198//65
f 255//66 129//66 131//66
f 131//66 133//66 255//66
f 133//66 135//66 255//66
f 135//66 137//66 139//66
f 139//66 141//66 135//66
f 141//66 143//66 135//66
f 143//66 145//66 151//66
f 145//66 147//66 151//66
f 147//66 149//66 151//66
f 151//66 153//66 159//66
f 153//66 155//66 159//66
f 155//66 157//66 159//66
f 159//66 161//66 163//66
f 163//66 165//66 159//66
f 165//66 167//66 159//66
f 167//66 169//66 171//66
f 171//66 173//66 175//66
f 175//66 177//66 183//66
f 177//66 179//66 183//66
f 179//66 181//66 183//66
f 183//66 185//66 191//66
f 185//66 187//66 191//66
f 187//66 189//66 191//66
f 191//66 193//66 195//66
f 195//66 197//66 199//66
f 199//66 201//66 203//66
f 203//66 205//66 199//66
f 205//66 207//66 199//66
f 207//66 209//66 215//66
f 209//66 211//66 215//66
f 211//66 213//66 215//66
f 215//66 217//66 219//66
f 219//66 221//66 223//66
f 223//66 225//66 227//66
f 227//66 229//66 231//66
f 231//66 233//66 235//66
f 235//66 237//66 231//66
f 237//66 239//66 231//66
f 239//66 241//66 243//66
f 243//66 245//66 247//66
f 247//66 249//66 251//66
f 251//66 253//66 255//66
f 167//66 171//66 159//66
f 171//66 175//66 159//66
f 191//66 195//66 199//66
f 215//66 219//66 207//66
f 219//66 223//66 207//66
f 223//66 227//66 239//66
f 227//66 231//66 239//66
f 239//66 243//66 247//66
f 247//66 251//66 255//66
f 255//66 135//66 143//66
f 143//66 151//66 159//66
f 175//66 183//66 191//66
f 191//66 199//66 223//66
f 199//66 207//66 223//66
f 239//66 247//66 223//66
f 247//66 255//66 223//66
f 255//66 143//66 159//66
f 159//66 175//66 191//66
f 255//66 159//66 223//66
