# Blender v2.93.1 OBJ File: ''
# www.blender.org
o pri_x.002_Cylinder.004
v 0.168429 0.004277 -0.000000
v 0.168429 0.004194 -0.000834
v 0.168429 0.003951 -0.001637
v 0.168429 0.003556 -0.002376
v 0.168429 0.003024 -0.003024
v 0.168429 0.002376 -0.003556
v 0.168429 0.001637 -0.003951
v 0.168429 0.000834 -0.004194
v 0.168429 -0.000000 -0.004277
v 0.168429 -0.000834 -0.004194
v 0.168429 -0.001637 -0.003951
v 0.168429 -0.002376 -0.003556
v 0.168429 -0.003024 -0.003024
v 0.168429 -0.003556 -0.002376
v 0.168429 -0.003951 -0.001637
v 0.168429 -0.004194 -0.000834
v 0.168429 -0.004277 -0.000000
v 0.168429 -0.004194 0.000834
v 0.168429 -0.003951 0.001637
v 0.168429 -0.003556 0.002376
v 0.168429 -0.003024 0.003024
v 0.168429 -0.002376 0.003556
v 0.168429 -0.001637 0.003951
v 0.168429 -0.000834 0.004194
v 0.168429 0.000000 0.004277
v 0.168429 0.000834 0.004194
v 0.168429 0.001637 0.003951
v 0.168429 0.002376 0.003556
v 0.168429 0.003024 0.003024
v 0.168429 0.003556 0.002376
v 0.168429 0.003951 0.001637
v 0.168429 0.004194 0.000834
v 0.168429 0.004194 -0.000834
v 0.168429 0.004277 -0.000000
v 0.168429 0.003951 -0.001637
v 0.168429 0.003556 -0.002376
v 0.168429 0.003024 -0.003024
v 0.168429 0.002376 -0.003556
v 0.168429 0.001637 -0.003951
v 0.168429 0.000834 -0.004194
v 0.168429 -0.000000 -0.004277
v 0.168429 -0.000834 -0.004194
v 0.168429 -0.001637 -0.003951
v 0.168429 -0.002376 -0.003556
v 0.168429 -0.003024 -0.003024
v 0.168429 -0.003556 -0.002376
v 0.168429 -0.003951 -0.001637
v 0.168429 -0.004194 -0.000834
v 0.168429 -0.004277 -0.000000
v 0.168429 -0.004194 0.000834
v 0.168429 -0.003951 0.001637
v 0.168429 -0.003556 0.002376
v 0.168429 -0.003024 0.003024
v 0.168429 -0.002376 0.003556
v 0.168429 -0.001637 0.003951
v 0.168429 -0.000834 0.004194
v 0.168429 0.000000 0.004277
v 0.168429 0.000834 0.004194
v 0.168429 0.001637 0.003951
v 0.168429 0.002376 0.003556
v 0.168429 0.003024 0.003024
v 0.168429 0.003556 0.002376
v 0.168429 0.003951 0.001637
v 0.168429 0.004194 0.000834
v 0.168429 0.009399 -0.001870
v 0.168429 0.009583 -0.000000
v 0.168429 0.008854 -0.003667
v 0.168429 0.007968 -0.005324
v 0.168429 0.006776 -0.006776
v 0.168429 0.005324 -0.007968
v 0.168429 0.003667 -0.008854
v 0.168429 0.001870 -0.009399
v 0.168429 -0.000000 -0.009583
v 0.168429 -0.001870 -0.009399
v 0.168429 -0.003667 -0.008854
v 0.168429 -0.005324 -0.007968
v 0.168429 -0.006776 -0.006776
v 0.168429 -0.007968 -0.005324
v 0.168429 -0.008854 -0.003667
v 0.168429 -0.009399 -0.001870
v 0.168429 -0.009583 -0.000000
v 0.168429 -0.009399 0.001870
v 0.168429 -0.008854 0.003667
v 0.168429 -0.007968 0.005324
v 0.168429 -0.006776 0.006776
v 0.168429 -0.005324 0.007968
v 0.168429 -0.003667 0.008854
v 0.168429 -0.001870 0.009399
v 0.168429 0.000000 0.009583
v 0.168429 0.001870 0.009399
v 0.168429 0.003667 0.008854
v 0.168429 0.005324 0.007968
v 0.168429 0.006776 0.006776
v 0.168429 0.007968 0.005324
v 0.168429 0.008854 0.003667
v 0.168429 0.009399 0.001870
v 0.168429 0.009399 -0.001870
v 0.168429 0.009583 -0.000000
v 0.168429 0.008854 -0.003667
v 0.168429 0.007968 -0.005324
v 0.168429 0.006776 -0.006776
v 0.168429 0.005324 -0.007968
v 0.168429 0.003667 -0.008854
v 0.168429 0.001870 -0.009399
v 0.168429 -0.000000 -0.009583
v 0.168429 -0.001870 -0.009399
v 0.168429 -0.003667 -0.008854
v 0.168429 -0.005324 -0.007968
v 0.168429 -0.006776 -0.006776
v 0.168429 -0.007968 -0.005324
v 0.168429 -0.008854 -0.003667
v 0.168429 -0.009399 -0.001870
v 0.168429 -0.009583 -0.000000
v 0.168429 -0.009399 0.001870
v 0.168429 -0.008854 0.003667
v 0.168429 -0.007968 0.005324
v 0.168429 -0.006776 0.006776
v 0.168429 -0.005324 0.007968
v 0.168429 -0.003667 0.008854
v 0.168429 -0.001870 0.009399
v 0.168429 0.000000 0.009583
v 0.168429 0.001870 0.009399
v 0.168429 0.003667 0.008854
v 0.168429 0.005324 0.007968
v 0.168429 0.006776 0.006776
v 0.168429 0.007968 0.005324
v 0.168429 0.008854 0.003667
v 0.168429 0.009399 0.001870
v 0.195926 0.000000 -0.000000
v 0.195926 0.000000 -0.000000
v 0.195926 0.000000 -0.000000
v 0.195926 0.000000 -0.000000
v 0.195926 0.000000 -0.000000
v 0.195926 0.000000 -0.000000
v 0.195926 0.000000 -0.000000
v 0.195926 -0.000000 -0.000000
v 0.195926 -0.000000 -0.000000
v 0.195926 -0.000000 -0.000000
v 0.195926 0.000000 -0.000000
v 0.195926 0.000000 -0.000000
v 0.195926 0.000000 -0.000000
v 0.195926 0.000000 -0.000000
v 0.195926 0.000000 -0.000000
v 0.195926 0.000000 -0.000000
v 0.195926 0.000000 -0.000000
v 0.195926 0.000000 -0.000000
v 0.195926 0.000000 -0.000000
v 0.195926 0.000000 -0.000000
v 0.195926 0.000000 -0.000000
v 0.195926 0.000000 -0.000000
v 0.195926 0.000000 -0.000000
v 0.195926 -0.000000 -0.000000
v 0.195926 -0.000000 -0.000000
v 0.195926 -0.000000 -0.000000
v 0.195926 0.000000 -0.000000
v 0.195926 0.000000 -0.000000
v 0.195926 0.000000 -0.000000
v 0.195926 0.000000 -0.000000
v 0.195926 0.000000 -0.000000
v 0.195926 0.000000 -0.000000
v -0.009302 0.004277 0.000000
v -0.009302 0.004194 -0.000834
v -0.009302 0.003951 -0.001637
v -0.009302 0.003556 -0.002376
v -0.009302 0.003024 -0.003024
v -0.009302 0.002376 -0.003556
v -0.009302 0.001637 -0.003951
v -0.009302 0.000834 -0.004194
v -0.009302 -0.000000 -0.004277
v -0.009302 -0.000834 -0.004194
v -0.009302 -0.001637 -0.003951
v -0.009302 -0.002376 -0.003556
v -0.009302 -0.003024 -0.003024
v -0.009302 -0.003556 -0.002376
v -0.009302 -0.003951 -0.001637
v -0.009302 -0.004194 -0.000834
v -0.009302 -0.004277 0.000000
v -0.009302 -0.004194 0.000834
v -0.009302 -0.003951 0.001637
v -0.009302 -0.003556 0.002376
v -0.009302 -0.003024 0.003024
v -0.009302 -0.002376 0.003556
v -0.009302 -0.001637 0.003951
v -0.009302 -0.000834 0.004194
v -0.009302 0.000000 0.004277
v -0.009302 0.000834 0.004194
v -0.009302 0.001637 0.003951
v -0.009302 0.002376 0.003556
v -0.009302 0.003024 0.003024
v -0.009302 0.003556 0.002376
v -0.009302 0.003951 0.001637
v -0.009302 0.004194 0.000834
vn -0.0000 0.9952 -0.0980
vn -0.0000 0.9569 -0.2903
vn -0.0000 0.8819 -0.4714
vn -0.0000 0.7730 -0.6344
vn -0.0000 0.6344 -0.7730
vn -0.0000 0.4714 -0.8819
vn -0.0000 0.2903 -0.9569
vn -0.0000 0.0980 -0.9952
vn -0.0000 -0.0980 -0.9952
vn -0.0000 -0.2903 -0.9569
vn -0.0000 -0.4714 -0.8819
vn -0.0000 -0.6344 -0.7730
vn -0.0000 -0.7730 -0.6344
vn -0.0000 -0.8819 -0.4714
vn -0.0000 -0.9569 -0.2903
vn -0.0000 -0.9952 -0.0980
vn 0.0000 -0.9952 0.0980
vn 0.0000 -0.9569 0.2903
vn 0.0000 -0.8819 0.4714
vn 0.0000 -0.7730 0.6344
vn 0.0000 -0.6344 0.7730
vn 0.0000 -0.4714 0.8819
vn 0.0000 -0.2903 0.9569
vn 0.0000 -0.0980 0.9952
vn 0.0000 0.0980 0.9952
vn 0.0000 0.2903 0.9569
vn 0.0000 0.4714 0.8819
vn 0.0000 0.6344 0.7730
vn 0.0000 0.7730 0.6344
vn 0.0000 0.8819 0.4714
vn 0.0000 0.0000 1.0000
vn 0.0000 0.9569 0.2903
vn 0.0000 0.9952 0.0980
vn -1.0000 -0.0000 -0.0000
vn 0.3277 0.4454 0.8332
vn 0.3277 0.9402 -0.0926
vn 0.3291 -0.9443 0.0000
vn 0.0000 1.0000 0.0000
vn -0.3291 -0.9443 0.0000
vn -0.0137 0.9999 0.0000
vn 0.3277 0.2743 -0.9041
vn -0.3291 0.0000 0.9443
vn 0.3277 -0.4454 0.8332
vn 0.3277 -0.0926 -0.9402
vn -0.4472 0.0000 -0.8944
vn 0.3291 0.0000 0.9443
vn -0.1094 -0.9940 0.0000
vn 0.3277 0.2743 0.9041
vn 0.3277 -0.7303 -0.5994
vn 0.0000 -1.0000 0.0000
vn 0.3277 -0.8332 -0.4454
vn 0.3291 0.9443 0.0000
vn 0.3277 0.5994 0.7303
vn 0.3277 -0.9041 -0.2743
vn 0.3277 0.9041 -0.2743
vn 0.3277 0.7303 0.5994
vn 0.3277 -0.9402 -0.0926
vn 0.3277 0.8332 -0.4454
vn 0.3277 0.8332 0.4454
vn 0.3277 -0.9402 0.0926
vn 0.3277 0.7303 -0.5994
vn 0.3277 0.9041 0.2743
vn 0.3277 -0.9041 0.2743
vn 0.3277 0.5994 -0.7303
vn 0.3277 0.9402 0.0926
vn 0.3277 -0.8332 0.4454
vn 0.3277 0.4454 -0.8332
vn 0.3277 -0.7303 0.5994
vn -0.0000 0.0000 -1.0000
vn 0.3277 -0.5994 0.7303
vn 0.3277 0.0926 -0.9402
vn 0.0137 0.9999 0.0000
vn 0.3291 0.0000 -0.9443
vn 0.3277 -0.2743 0.9041
vn 0.3277 -0.2743 -0.9041
vn 0.3277 -0.0926 0.9402
vn 0.3277 -0.4454 -0.8332
vn 0.3277 0.0926 0.9402
vn 0.3277 -0.5994 -0.7303
vn 0.4472 0.0000 0.8944
s off
f 1//1 162//1 161//1
f 2//2 163//2 162//2
f 3//3 164//3 163//3
f 4//4 165//4 164//4
f 5//5 166//5 165//5
f 6//6 167//6 166//6
f 7//7 168//7 167//7
f 8//8 169//8 168//8
f 9//9 170//9 169//9
f 10//10 171//10 170//10
f 11//11 172//11 171//11
f 12//12 173//12 172//12
f 13//13 174//13 173//13
f 14//14 175//14 174//14
f 15//15 176//15 175//15
f 176//16 17//16 177//16
f 17//17 178//17 177//17
f 178//18 19//18 179//18
f 19//19 180//19 179//19
f 180//20 21//20 181//20
f 21//21 182//21 181//21
f 22//22 183//22 182//22
f 23//23 184//23 183//23
f 24//24 185//24 184//24
f 25//25 186//25 185//25
f 26//26 187//26 186//26
f 27//27 188//27 187//27
f 28//28 189//28 188//28
f 29//29 190//29 189//29
f 30//30 191//30 190//30
f 4//31 35//31 36//31
f 31//32 192//32 191//32
f 32//33 161//33 192//33
f 38//34 71//34 39//34
f 13//31 44//31 45//31
f 22//31 53//31 54//31
f 31//31 62//31 63//31
f 9//31 40//31 41//31
f 18//31 49//31 50//31
f 27//31 58//31 59//31
f 5//31 36//31 37//31
f 14//31 45//31 46//31
f 23//31 54//31 55//31
f 32//31 63//31 64//31
f 10//31 41//31 42//31
f 19//31 50//31 51//31
f 28//31 59//31 60//31
f 6//31 37//31 38//31
f 15//31 46//31 47//31
f 24//31 55//31 56//31
f 2//31 34//31 33//31
f 1//31 64//31 34//31
f 11//31 42//31 43//31
f 20//31 51//31 52//31
f 29//31 60//31 61//31
f 7//31 38//31 39//31
f 16//31 47//31 48//31
f 25//31 56//31 57//31
f 3//31 33//31 35//31
f 12//31 43//31 44//31
f 21//31 52//31 53//31
f 30//31 61//31 62//31
f 8//31 39//31 40//31
f 17//31 48//31 49//31
f 26//31 57//31 58//31
f 74//31 105//31 106//31
f 52//34 85//34 53//34
f 40//34 71//34 72//34
f 53//34 86//34 54//34
f 41//34 72//34 73//34
f 55//34 86//34 87//34
f 41//34 74//34 42//34
f 55//34 88//34 56//34
f 42//34 75//34 43//34
f 57//34 88//34 89//34
f 43//34 76//34 44//34
f 57//34 90//34 58//34
f 44//34 77//34 45//34
f 58//34 91//34 59//34
f 46//34 77//34 78//34
f 59//34 92//34 60//34
f 46//34 79//34 47//34
f 34//34 65//34 33//34
f 60//34 93//34 61//34
f 47//34 80//34 48//34
f 33//34 67//34 35//34
f 62//34 93//34 94//34
f 48//34 81//34 49//34
f 35//34 68//34 36//34
f 62//34 95//34 63//34
f 49//34 82//34 50//34
f 36//34 69//34 37//34
f 63//34 96//34 64//34
f 50//34 83//34 51//34
f 37//34 70//34 38//34
f 64//34 66//34 34//34
f 52//34 83//34 84//34
f 110//31 141//31 142//31
f 88//31 119//31 120//31
f 75//31 106//31 107//31
f 89//31 120//31 121//31
f 76//31 107//31 108//31
f 90//31 121//31 122//31
f 77//31 108//31 109//31
f 91//31 122//31 123//31
f 78//31 109//31 110//31
f 92//31 123//31 124//31
f 79//31 110//31 111//31
f 65//31 98//31 97//31
f 93//31 124//31 125//31
f 80//31 111//31 112//31
f 67//31 97//31 99//31
f 94//31 125//31 126//31
f 81//31 112//31 113//31
f 68//31 99//31 100//31
f 95//31 126//31 127//31
f 82//31 113//31 114//31
f 69//31 100//31 101//31
f 96//31 127//31 128//31
f 83//31 114//31 115//31
f 70//31 101//31 102//31
f 66//31 128//31 98//31
f 84//31 115//31 116//31
f 71//31 102//31 103//31
f 85//31 116//31 117//31
f 72//31 103//31 104//31
f 86//31 117//31 118//31
f 73//31 104//31 105//31
f 87//31 118//31 119//31
f 140//31 139//31 136//31
f 123//35 156//35 124//35
f 111//31 142//31 143//31
f 98//36 129//36 97//36
f 125//31 156//31 157//31
f 112//31 143//31 144//31
f 99//31 129//31 131//31
f 126//31 157//31 158//31
f 113//37 144//37 145//37
f 100//31 131//31 132//31
f 127//31 158//31 159//31
f 114//38 145//38 146//38
f 101//31 132//31 133//31
f 128//31 159//31 160//31
f 115//31 146//31 147//31
f 102//31 133//31 134//31
f 98//39 160//39 130//39
f 116//31 147//31 148//31
f 103//40 134//40 135//40
f 117//31 148//31 149//31
f 103//41 136//41 104//41
f 118//31 149//31 150//31
f 105//42 136//42 137//42
f 118//43 151//43 119//43
f 105//44 138//44 106//44
f 120//45 151//45 152//45
f 107//31 138//31 139//31
f 121//46 152//46 153//46
f 108//47 139//47 140//47
f 122//31 153//31 154//31
f 109//31 140//31 141//31
f 122//48 155//48 123//48
f 167//34 175//34 183//34
f 1//1 2//1 162//1
f 2//2 3//2 163//2
f 3//3 4//3 164//3
f 4//4 5//4 165//4
f 5//5 6//5 166//5
f 6//6 7//6 167//6
f 7//7 8//7 168//7
f 8//8 9//8 169//8
f 9//9 10//9 170//9
f 10//10 11//10 171//10
f 11//11 12//11 172//11
f 12//12 13//12 173//12
f 13//13 14//13 174//13
f 14//14 15//14 175//14
f 15//15 16//15 176//15
f 176//16 16//16 17//16
f 17//17 18//17 178//17
f 178//18 18//18 19//18
f 19//19 20//19 180//19
f 180//20 20//20 21//20
f 21//21 22//21 182//21
f 22//22 23//22 183//22
f 23//23 24//23 184//23
f 24//24 25//24 185//24
f 25//25 26//25 186//25
f 26//26 27//26 187//26
f 27//27 28//27 188//27
f 28//28 29//28 189//28
f 29//29 30//29 190//29
f 30//30 31//30 191//30
f 4//31 3//31 35//31
f 31//32 32//32 192//32
f 32//33 1//33 161//33
f 38//34 70//34 71//34
f 13//31 12//31 44//31
f 22//31 21//31 53//31
f 31//31 30//31 62//31
f 9//31 8//31 40//31
f 18//31 17//31 49//31
f 27//31 26//31 58//31
f 5//31 4//31 36//31
f 14//31 13//31 45//31
f 23//31 22//31 54//31
f 32//31 31//31 63//31
f 10//31 9//31 41//31
f 19//31 18//31 50//31
f 28//31 27//31 59//31
f 6//31 5//31 37//31
f 15//31 14//31 46//31
f 24//31 23//31 55//31
f 2//31 1//31 34//31
f 1//31 32//31 64//31
f 11//31 10//31 42//31
f 20//31 19//31 51//31
f 29//31 28//31 60//31
f 7//31 6//31 38//31
f 16//31 15//31 47//31
f 25//31 24//31 56//31
f 3//31 2//31 33//31
f 12//31 11//31 43//31
f 21//31 20//31 52//31
f 30//31 29//31 61//31
f 8//31 7//31 39//31
f 17//31 16//31 48//31
f 26//31 25//31 57//31
f 74//31 73//31 105//31
f 52//34 84//34 85//34
f 40//34 39//34 71//34
f 53//34 85//34 86//34
f 41//34 40//34 72//34
f 55//34 54//34 86//34
f 41//34 73//34 74//34
f 55//34 87//34 88//34
f 42//34 74//34 75//34
f 57//34 56//34 88//34
f 43//34 75//34 76//34
f 57//34 89//34 90//34
f 44//34 76//34 77//34
f 58//34 90//34 91//34
f 46//34 45//34 77//34
f 59//34 91//34 92//34
f 46//34 78//34 79//34
f 34//34 66//34 65//34
f 60//34 92//34 93//34
f 47//34 79//34 80//34
f 33//34 65//34 67//34
f 62//34 61//34 93//34
f 48//34 80//34 81//34
f 35//34 67//34 68//34
f 62//34 94//34 95//34
f 49//34 81//34 82//34
f 36//34 68//34 69//34
f 63//34 95//34 96//34
f 50//34 82//34 83//34
f 37//34 69//34 70//34
f 64//34 96//34 66//34
f 52//34 51//34 83//34
f 110//49 109//49 141//49
f 88//31 87//31 119//31
f 75//31 74//31 106//31
f 89//31 88//31 120//31
f 76//31 75//31 107//31
f 90//31 89//31 121//31
f 77//31 76//31 108//31
f 91//31 90//31 122//31
f 78//31 77//31 109//31
f 92//31 91//31 123//31
f 79//31 78//31 110//31
f 65//31 66//31 98//31
f 93//31 92//31 124//31
f 80//31 79//31 111//31
f 67//31 65//31 97//31
f 94//31 93//31 125//31
f 81//31 80//31 112//31
f 68//31 67//31 99//31
f 95//31 94//31 126//31
f 82//31 81//31 113//31
f 69//31 68//31 100//31
f 96//31 95//31 127//31
f 83//31 82//31 114//31
f 70//31 69//31 101//31
f 66//31 96//31 128//31
f 84//31 83//31 115//31
f 71//31 70//31 102//31
f 85//31 84//31 116//31
f 72//31 71//31 103//31
f 86//31 85//31 117//31
f 73//31 72//31 104//31
f 87//31 86//31 118//31
f 131//31 129//31 130//31
f 160//31 159//31 158//31
f 132//31 131//31 130//31
f 160//31 158//31 157//31
f 133//31 132//31 130//31
f 160//31 157//31 156//31
f 134//31 133//31 130//31
f 160//31 156//31 155//31
f 135//38 134//38 130//38
f 155//31 154//31 153//31
f 135//50 130//50 160//50
f 155//31 153//31 152//31
f 136//31 135//31 160//31
f 155//31 152//31 151//31
f 138//31 137//31 136//31
f 160//31 155//31 151//31
f 139//31 138//31 136//31
f 160//31 151//31 150//31
f 136//31 160//31 150//31
f 149//31 148//31 147//31
f 136//31 150//31 149//31
f 147//31 146//31 145//31
f 136//31 149//31 147//31
f 145//31 144//31 143//31
f 147//31 145//31 143//31
f 142//31 141//31 140//31
f 136//31 147//31 143//31
f 143//31 142//31 140//31
f 136//31 143//31 140//31
f 123//50 155//50 156//50
f 111//51 110//51 142//51
f 98//52 130//52 129//52
f 125//53 124//53 156//53
f 112//54 111//54 143//54
f 99//55 97//55 129//55
f 126//56 125//56 157//56
f 113//57 112//57 144//57
f 100//58 99//58 131//58
f 127//59 126//59 158//59
f 114//60 113//60 145//60
f 101//61 100//61 132//61
f 128//62 127//62 159//62
f 115//63 114//63 146//63
f 102//64 101//64 133//64
f 98//65 128//65 160//65
f 116//66 115//66 147//66
f 103//67 102//67 134//67
f 117//68 116//68 148//68
f 103//69 135//69 136//69
f 118//70 117//70 149//70
f 105//71 104//71 136//71
f 118//72 150//72 151//72
f 105//73 137//73 138//73
f 120//74 119//74 151//74
f 107//75 106//75 138//75
f 121//76 120//76 152//76
f 108//77 107//77 139//77
f 122//78 121//78 153//78
f 109//79 108//79 140//79
f 122//80 154//80 155//80
f 191//34 192//34 161//34
f 161//34 162//34 163//34
f 163//34 164//34 165//34
f 165//34 166//34 167//34
f 167//34 168//34 169//34
f 169//34 170//34 167//34
f 170//34 171//34 167//34
f 171//34 172//34 173//34
f 173//34 174//34 175//34
f 175//34 176//34 177//34
f 177//34 178//34 179//34
f 179//34 180//34 181//34
f 181//34 182//34 183//34
f 183//34 184//34 187//34
f 184//34 185//34 187//34
f 185//34 186//34 187//34
f 187//34 188//34 189//34
f 189//34 190//34 191//34
f 191//34 161//34 167//34
f 161//34 163//34 167//34
f 163//34 165//34 167//34
f 171//34 173//34 175//34
f 175//34 177//34 179//34
f 179//34 181//34 175//34
f 181//34 183//34 175//34
f 187//34 189//34 183//34
f 189//34 191//34 183//34
f 167//34 171//34 175//34
f 191//34 167//34 183//34
