# Blender 4.0.2
# www.blender.org
o didymain_pos_axis_y
v -0.012859 -0.023107 0.000000
v -0.012859 0.798939 0.000000
v -0.012485 -0.023107 -0.003077
v -0.012485 0.798939 -0.003077
v -0.011386 -0.023107 -0.005976
v -0.011386 0.798939 -0.005976
v -0.009625 -0.023107 -0.008527
v -0.009625 0.798939 -0.008527
v -0.007305 -0.023107 -0.010582
v -0.007305 0.798939 -0.010582
v -0.004560 -0.023107 -0.012023
v -0.004560 0.798939 -0.012023
v -0.001550 -0.023107 -0.012765
v -0.001550 0.798939 -0.012765
v 0.001550 -0.023107 -0.012765
v 0.001550 0.798939 -0.012765
v 0.004560 -0.023107 -0.012023
v 0.004560 0.798939 -0.012023
v 0.007305 -0.023107 -0.010582
v 0.007304 0.798939 -0.010582
v 0.009625 -0.023107 -0.008527
v 0.009625 0.798939 -0.008527
v 0.011386 -0.023107 -0.005976
v 0.011386 0.798939 -0.005976
v 0.012485 -0.023107 -0.003077
v 0.012485 0.798939 -0.003077
v 0.012859 -0.023107 0.000000
v 0.012859 0.798939 0.000000
v 0.012485 -0.023107 0.003077
v 0.012485 0.798939 0.003077
v 0.011386 -0.023107 0.005976
v 0.011386 0.798939 0.005976
v 0.009625 -0.023107 0.008527
v 0.009625 0.798939 0.008527
v 0.007305 -0.023107 0.010582
v 0.007304 0.798939 0.010582
v 0.004560 -0.023107 0.012023
v 0.004560 0.798939 0.012023
v 0.001550 -0.023107 0.012765
v 0.001550 0.798939 0.012765
v -0.001550 -0.023107 0.012765
v -0.001550 0.798939 0.012765
v -0.004560 -0.023107 0.012023
v -0.004560 0.798939 0.012023
v -0.007305 -0.023107 0.010582
v -0.007305 0.798939 0.010582
v -0.009625 -0.023107 0.008527
v -0.009625 0.798939 0.008527
v -0.011386 -0.023107 0.005976
v -0.011386 0.798939 0.005976
v -0.012485 -0.023107 0.003077
v -0.012485 0.798939 0.003077
v -0.012859 -0.023107 0.000000
v -0.012485 -0.023107 -0.003077
v -0.011386 -0.023107 -0.005976
v -0.009625 -0.023107 -0.008527
v -0.007305 -0.023107 -0.010582
v -0.004560 -0.023107 -0.012023
v -0.001550 -0.023107 -0.012765
v 0.001550 -0.023107 -0.012765
v 0.004560 -0.023107 -0.012023
v 0.007305 -0.023107 -0.010582
v 0.009625 -0.023107 -0.008527
v 0.011386 -0.023107 -0.005976
v 0.012485 -0.023107 -0.003077
v 0.012859 -0.023107 0.000000
v 0.012485 -0.023107 0.003077
v 0.011386 -0.023107 0.005976
v 0.009625 -0.023107 0.008527
v 0.007305 -0.023107 0.010582
v 0.004560 -0.023107 0.012023
v 0.001550 -0.023107 0.012765
v -0.001550 -0.023107 0.012765
v -0.004560 -0.023107 0.012023
v -0.007305 -0.023107 0.010582
v -0.009625 -0.023107 0.008527
v -0.011386 -0.023107 0.005976
v -0.012485 -0.023107 0.003077
v -0.030380 0.795724 0.000000
v -0.029345 0.795724 -0.007863
v -0.026310 0.795724 -0.015190
v -0.021482 0.795724 -0.021482
v -0.015190 0.795724 -0.026310
v -0.007863 0.795724 -0.029345
v 0.000000 0.795724 -0.030380
v 0.007863 0.795724 -0.029345
v 0.015190 0.795724 -0.026310
v 0.021482 0.795724 -0.021482
v 0.026310 0.795724 -0.015190
v 0.029345 0.795724 -0.007863
v 0.030380 0.795724 0.000000
v 0.029345 0.795724 0.007863
v 0.026310 0.795724 0.015190
v 0.021482 0.795724 0.021482
v 0.015190 0.795724 0.026310
v 0.007863 0.795724 0.029345
v 0.000000 0.795724 0.030380
v -0.007863 0.795724 0.029345
v -0.015190 0.795724 0.026310
v -0.021482 0.795724 0.021482
v -0.026310 0.795724 0.015190
v -0.029345 0.795724 0.007863
v 0.000000 0.882315 0.000000
v 0.018336 0.795724 0.023896
v -0.030380 0.795724 0.000000
v -0.029345 0.795724 -0.007863
v -0.026310 0.795724 -0.015190
v -0.021482 0.795724 -0.021482
v -0.015190 0.795724 -0.026310
v -0.007863 0.795724 -0.029345
v 0.000000 0.795724 -0.030380
v 0.007863 0.795724 -0.029345
v 0.015190 0.795724 -0.026310
v 0.021482 0.795724 -0.021482
v 0.026310 0.795724 -0.015190
v 0.029345 0.795724 -0.007863
v 0.030380 0.795724 0.000000
v 0.029345 0.795724 0.007863
v 0.026310 0.795724 0.015190
v 0.021482 0.795724 0.021482
v 0.015190 0.795724 0.026310
v 0.007863 0.795724 0.029345
v 0.000000 0.795724 0.030380
v -0.007863 0.795724 0.029345
v -0.015190 0.795724 0.026310
v -0.021482 0.795724 0.021482
v -0.026310 0.795724 0.015190
v -0.029345 0.795724 0.007863
v 0.018336 0.795724 0.023896
vn -0.9436 0.3311 -0.0000
vn -0.0000 1.0000 -0.0000
vn -0.9115 0.3311 -0.2442
vn -0.8172 0.3311 -0.4718
vn -0.6672 0.3311 -0.6672
vn -0.4718 0.3311 -0.8172
vn -0.2442 0.3311 -0.9115
vn -0.0000 0.3311 -0.9436
vn 0.2442 0.3311 -0.9115
vn 0.4718 0.3311 -0.8172
vn 0.6672 0.3311 -0.6672
vn 0.8172 0.3311 -0.4718
vn 0.9115 0.3311 -0.2442
vn 0.9436 0.3311 -0.0000
vn 0.9115 0.3311 0.2442
vn 0.8172 0.3311 0.4718
vn 0.6672 0.3311 0.6672
vn 0.5750 0.3285 0.7493
vn 0.4718 0.3311 0.8172
vn 0.2442 0.3311 0.9115
vn -0.0000 0.3311 0.9436
vn -0.2442 0.3311 0.9115
vn -0.4718 0.3311 0.8172
vn -0.6672 0.3311 0.6672
vn -0.8172 0.3311 0.4718
vn -0.9115 0.3311 0.2442
vn -0.0000 -1.0000 -0.0000
vn -1.0000 -0.0000 -0.0000
vn -0.9709 -0.0000 -0.2393
vn -0.8855 -0.0000 -0.4647
vn -0.7485 -0.0000 -0.6632
vn -0.5681 -0.0000 -0.8230
vn -0.3547 -0.0000 -0.9350
vn -0.1206 -0.0000 -0.9927
vn 0.1206 -0.0000 -0.9927
vn 0.3547 -0.0000 -0.9350
vn 0.5681 -0.0000 -0.8230
vn 0.5680 -0.0000 -0.8230
vn 0.7485 -0.0000 -0.6632
vn 0.7484 -0.0000 -0.6633
vn 0.8855 -0.0000 -0.4647
vn 0.9709 -0.0000 -0.2393
vn 1.0000 -0.0000 -0.0000
vn 0.9709 -0.0000 0.2393
vn 0.8855 -0.0000 0.4647
vn 0.7485 -0.0000 0.6632
vn 0.7484 -0.0000 0.6633
vn 0.5681 -0.0000 0.8230
vn 0.5680 -0.0000 0.8230
vn 0.3547 -0.0000 0.9350
vn 0.1206 -0.0000 0.9927
vn -0.1206 -0.0000 0.9927
vn -0.3547 -0.0000 0.9350
vn -0.5681 -0.0000 0.8230
vn -0.7485 -0.0000 0.6632
vn -0.8855 -0.0000 0.4647
vn -0.9709 -0.0000 0.2393
s 1
f 79//1 103//2 80//3
f 80//3 103//2 81//4
f 81//4 103//2 82//5
f 82//5 103//2 83//6
f 83//6 103//2 84//7
f 84//7 103//2 85//8
f 85//8 103//2 86//9
f 86//9 103//2 87//10
f 87//10 103//2 88//11
f 88//11 103//2 89//12
f 89//12 103//2 90//13
f 90//13 103//2 91//14
f 91//14 103//2 92//15
f 92//15 103//2 93//16
f 93//16 103//2 94//17
f 103//2 104//18 94//17
f 95//19 103//2 96//20
f 96//20 103//2 97//21
f 97//21 103//2 98//22
f 98//22 103//2 99//23
f 99//23 103//2 100//24
f 100//24 103//2 101//25
f 101//25 103//2 102//26
f 102//26 103//2 79//1
f 129//27 122//27 123//27
f 103//2 95//19 104//18
f 128//27 105//27 129//27
f 105//27 106//27 129//27
f 106//27 107//27 129//27
f 107//27 108//27 129//27
f 108//27 109//27 129//27
f 109//27 110//27 129//27
f 110//27 111//27 129//27
f 111//27 112//27 129//27
f 112//27 113//27 129//27
f 113//27 114//27 129//27
f 114//27 115//27 129//27
f 115//27 116//27 129//27
f 116//27 117//27 129//27
f 117//27 118//27 129//27
f 118//27 119//27 129//27
f 119//27 120//27 129//27
f 129//27 121//27 122//27
f 127//27 128//27 129//27
f 125//27 126//27 129//27
f 126//27 127//27 129//27
f 123//27 124//27 129//27
f 124//27 125//27 129//27
f 2//28 3//29 1//28
f 4//29 5//30 3//29
f 6//30 7//31 5//30
f 8//31 9//32 7//31
f 10//32 11//33 9//32
f 12//33 13//34 11//33
f 14//34 15//35 13//34
f 16//35 17//36 15//35
f 18//36 19//37 17//36
f 20//38 21//39 19//37
f 22//40 23//41 21//39
f 24//41 25//42 23//41
f 26//42 27//43 25//42
f 28//43 29//44 27//43
f 30//44 31//45 29//44
f 32//45 33//46 31//45
f 34//47 35//48 33//46
f 36//49 37//50 35//48
f 38//50 39//51 37//50
f 40//51 41//52 39//51
f 42//52 43//53 41//52
f 44//53 45//54 43//53
f 46//54 47//55 45//54
f 48//55 49//56 47//55
f 50//56 51//57 49//56
f 52//57 1//28 51//57
f 76//27 56//27 64//27
f 2//28 4//29 3//29
f 4//29 6//30 5//30
f 6//30 8//31 7//31
f 8//31 10//32 9//32
f 10//32 12//33 11//33
f 12//33 14//34 13//34
f 14//34 16//35 15//35
f 16//35 18//36 17//36
f 18//36 20//38 19//37
f 20//38 22//40 21//39
f 22//40 24//41 23//41
f 24//41 26//42 25//42
f 26//42 28//43 27//43
f 28//43 30//44 29//44
f 30//44 32//45 31//45
f 32//45 34//47 33//46
f 34//47 36//49 35//48
f 36//49 38//50 37//50
f 38//50 40//51 39//51
f 40//51 42//52 41//52
f 42//52 44//53 43//53
f 44//53 46//54 45//54
f 46//54 48//55 47//55
f 48//55 50//56 49//56
f 50//56 52//57 51//57
f 52//57 2//28 1//28
f 78//27 53//27 54//27
f 54//27 55//27 78//27
f 55//27 56//27 78//27
f 56//27 57//27 58//27
f 58//27 59//27 56//27
f 59//27 60//27 56//27
f 60//27 61//27 62//27
f 62//27 63//27 64//27
f 64//27 65//27 66//27
f 66//27 67//27 68//27
f 68//27 69//27 70//27
f 70//27 71//27 72//27
f 72//27 73//27 74//27
f 74//27 75//27 72//27
f 75//27 76//27 72//27
f 76//27 77//27 78//27
f 60//27 62//27 64//27
f 64//27 66//27 68//27
f 68//27 70//27 72//27
f 76//27 78//27 56//27
f 56//27 60//27 64//27
f 64//27 68//27 72//27
f 72//27 76//27 64//27
