# Blender 4.0.2
# www.blender.org
o dimorphos_pos_axis_z
v 0.000000 0.003977 -0.005343
v 0.000000 0.003977 0.184731
v 0.000952 0.003861 -0.005343
v 0.000952 0.003861 0.184731
v 0.001848 0.003521 -0.005343
v 0.001848 0.003521 0.184731
v 0.002637 0.002977 -0.005343
v 0.002637 0.002977 0.184731
v 0.003273 0.002259 -0.005343
v 0.003273 0.002259 0.184731
v 0.003718 0.001410 -0.005343
v 0.003718 0.001410 0.184731
v 0.003948 0.000479 -0.005343
v 0.003948 0.000479 0.184731
v 0.003948 -0.000479 -0.005343
v 0.003948 -0.000479 0.184731
v 0.003718 -0.001410 -0.005343
v 0.003718 -0.001410 0.184731
v 0.003273 -0.002259 -0.005343
v 0.003273 -0.002259 0.184731
v 0.002637 -0.002977 -0.005343
v 0.002637 -0.002977 0.184731
v 0.001848 -0.003521 -0.005343
v 0.001848 -0.003521 0.184731
v 0.000952 -0.003861 -0.005343
v 0.000952 -0.003861 0.184731
v 0.000000 -0.003977 -0.005343
v 0.000000 -0.003977 0.184731
v -0.000952 -0.003861 -0.005343
v -0.000952 -0.003861 0.184731
v -0.001848 -0.003521 -0.005343
v -0.001848 -0.003521 0.184731
v -0.002637 -0.002977 -0.005343
v -0.002637 -0.002977 0.184731
v -0.003273 -0.002259 -0.005343
v -0.003273 -0.002259 0.184731
v -0.003718 -0.001410 -0.005343
v -0.003718 -0.001410 0.184731
v -0.003948 -0.000479 -0.005343
v -0.003948 -0.000479 0.184731
v -0.003948 0.000479 -0.005343
v -0.003948 0.000479 0.184731
v -0.003718 0.001410 -0.005343
v -0.003718 0.001410 0.184731
v -0.003273 0.002259 -0.005343
v -0.003273 0.002259 0.184731
v -0.002637 0.002977 -0.005343
v -0.002637 0.002977 0.184731
v -0.001848 0.003521 -0.005343
v -0.001848 0.003521 0.184731
v -0.000952 0.003861 -0.005343
v -0.000952 0.003861 0.184731
v 0.000000 0.003977 -0.005343
v 0.000952 0.003861 -0.005343
v 0.001848 0.003521 -0.005343
v 0.002637 0.002977 -0.005343
v 0.003273 0.002259 -0.005343
v 0.003718 0.001410 -0.005343
v 0.003948 0.000479 -0.005343
v 0.003948 -0.000479 -0.005343
v 0.003718 -0.001410 -0.005343
v 0.003273 -0.002259 -0.005343
v 0.002637 -0.002977 -0.005343
v 0.001848 -0.003521 -0.005343
v 0.000952 -0.003861 -0.005343
v 0.000000 -0.003977 -0.005343
v -0.000952 -0.003861 -0.005343
v -0.001848 -0.003521 -0.005343
v -0.002637 -0.002977 -0.005343
v -0.003273 -0.002259 -0.005343
v -0.003718 -0.001410 -0.005343
v -0.003948 -0.000479 -0.005343
v -0.003948 0.000479 -0.005343
v -0.003718 0.001410 -0.005343
v -0.003273 0.002259 -0.005343
v -0.002637 0.002977 -0.005343
v -0.001848 0.003521 -0.005343
v -0.000952 0.003861 -0.005343
v 0.000000 0.009395 0.183987
v 0.002432 0.009075 0.183987
v 0.004698 0.008136 0.183987
v 0.006643 0.006643 0.183987
v 0.008136 0.004698 0.183987
v 0.009075 0.002432 0.183987
v 0.009395 0.000000 0.183987
v 0.009075 -0.002432 0.183987
v 0.008136 -0.004698 0.183987
v 0.006643 -0.006643 0.183987
v 0.004698 -0.008136 0.183987
v 0.002432 -0.009075 0.183987
v 0.000000 -0.009395 0.183987
v -0.002432 -0.009075 0.183987
v -0.004698 -0.008136 0.183987
v -0.006643 -0.006643 0.183987
v -0.008136 -0.004698 0.183987
v -0.009075 -0.002432 0.183987
v -0.009395 0.000000 0.183987
v -0.009075 0.002432 0.183987
v -0.008136 0.004698 0.183987
v -0.006643 0.006643 0.183987
v -0.004698 0.008136 0.183987
v -0.002432 0.009075 0.183987
v 0.000000 0.000000 0.204009
v -0.007390 -0.005671 0.183987
v 0.000000 0.009395 0.183987
v 0.002432 0.009075 0.183987
v 0.004698 0.008136 0.183987
v 0.006643 0.006643 0.183987
v 0.008136 0.004698 0.183987
v 0.009075 0.002432 0.183987
v 0.009395 0.000000 0.183987
v 0.009075 -0.002432 0.183987
v 0.008136 -0.004698 0.183987
v 0.006643 -0.006643 0.183987
v 0.004698 -0.008136 0.183987
v 0.002432 -0.009075 0.183987
v 0.000000 -0.009395 0.183987
v -0.002432 -0.009075 0.183987
v -0.004698 -0.008136 0.183987
v -0.006643 -0.006643 0.183987
v -0.008136 -0.004698 0.183987
v -0.009075 -0.002432 0.183987
v -0.009395 0.000000 0.183987
v -0.009075 0.002432 0.183987
v -0.008136 0.004698 0.183987
v -0.006643 0.006643 0.183987
v -0.004698 0.008136 0.183987
v -0.002432 0.009075 0.183987
v -0.007390 -0.005671 0.183987
vn -0.0000 0.9053 0.4248
vn -0.0000 0.0002 1.0000
vn 0.2342 0.8745 0.4247
vn 0.4526 0.7841 0.4247
vn 0.6401 0.6401 0.4248
vn 0.7839 0.4528 0.4248
vn 0.8744 0.2343 0.4248
vn 0.9053 -0.0000 0.4248
vn 0.8744 -0.2343 0.4248
vn 0.7839 -0.4528 0.4248
vn 0.6401 -0.6401 0.4248
vn 0.4528 -0.7840 0.4246
vn 0.2345 -0.8745 0.4246
vn -0.0000 -0.9053 0.4248
vn -0.2342 -0.8745 0.4247
vn -0.4526 -0.7841 0.4247
vn -0.6400 -0.6405 0.4245
vn -0.7194 -0.5522 0.4213
vn -0.7841 -0.4526 0.4246
vn -0.8744 -0.2343 0.4248
vn -0.9053 -0.0000 0.4248
vn -0.8744 0.2343 0.4248
vn -0.7839 0.4528 0.4248
vn -0.6401 0.6401 0.4248
vn -0.4526 0.7841 0.4247
vn -0.2345 0.8745 0.4246
vn -0.0000 -0.0000 -1.0000
vn -0.0001 -0.0000 -1.0000
vn -0.0000 1.0000 -0.0000
vn 0.2396 0.9709 -0.0000
vn 0.4646 0.8855 -0.0000
vn 0.6630 0.7487 -0.0000
vn 0.8232 0.5678 -0.0000
vn 0.9350 0.3546 -0.0000
vn 0.9927 0.1208 -0.0000
vn 0.9927 -0.1208 -0.0000
vn 0.9350 -0.3546 -0.0000
vn 0.8232 -0.5678 -0.0000
vn 0.6630 -0.7487 -0.0000
vn 0.4646 -0.8855 -0.0000
vn 0.2396 -0.9709 -0.0000
vn -0.0000 -1.0000 -0.0000
vn -0.2396 -0.9709 -0.0000
vn -0.4646 -0.8855 -0.0000
vn -0.6630 -0.7487 -0.0000
vn -0.8232 -0.5678 -0.0000
vn -0.9350 -0.3546 -0.0000
vn -0.9927 -0.1208 -0.0000
vn -0.9927 0.1208 -0.0000
vn -0.9350 0.3546 -0.0000
vn -0.8232 0.5678 -0.0000
vn -0.6630 0.7487 -0.0000
vn -0.4646 0.8855 -0.0000
vn -0.2396 0.9709 -0.0000
s 1
f 79//1 103//2 80//3
f 80//3 103//2 81//4
f 81//4 103//2 82//5
f 82//5 103//2 83//6
f 83//6 103//2 84//7
f 84//7 103//2 85//8
f 85//8 103//2 86//9
f 86//9 103//2 87//10
f 87//10 103//2 88//11
f 88//11 103//2 89//12
f 89//12 103//2 90//13
f 90//13 103//2 91//14
f 91//14 103//2 92//15
f 92//15 103//2 93//16
f 93//16 103//2 94//17
f 103//2 104//18 94//17
f 95//19 103//2 96//20
f 96//20 103//2 97//21
f 97//21 103//2 98//22
f 98//22 103//2 99//23
f 99//23 103//2 100//24
f 100//24 103//2 101//25
f 101//25 103//2 102//26
f 102//26 103//2 79//1
f 129//27 122//27 123//27
f 103//2 95//19 104//18
f 128//27 105//27 129//27
f 105//27 106//27 129//27
f 106//27 107//27 129//27
f 107//27 108//27 129//27
f 108//27 109//27 129//27
f 109//27 110//27 129//27
f 110//27 111//27 129//27
f 111//27 112//27 129//27
f 112//27 113//27 129//27
f 113//27 114//27 129//27
f 114//27 115//27 129//27
f 115//27 116//27 129//27
f 116//27 117//27 129//27
f 117//27 118//27 129//27
f 118//27 119//27 129//27
f 119//27 120//27 129//27
f 129//27 121//28 122//27
f 127//27 128//27 129//27
f 125//27 126//27 129//27
f 126//27 127//27 129//27
f 123//27 124//27 129//27
f 124//27 125//27 129//27
f 2//29 3//30 1//29
f 4//30 5//31 3//30
f 6//31 7//32 5//31
f 8//32 9//33 7//32
f 10//33 11//34 9//33
f 12//34 13//35 11//34
f 14//35 15//36 13//35
f 16//36 17//37 15//36
f 18//37 19//38 17//37
f 20//38 21//39 19//38
f 22//39 23//40 21//39
f 24//40 25//41 23//40
f 26//41 27//42 25//41
f 28//42 29//43 27//42
f 30//43 31//44 29//43
f 32//44 33//45 31//44
f 34//45 35//46 33//45
f 36//46 37//47 35//46
f 38//47 39//48 37//47
f 40//48 41//49 39//48
f 42//49 43//50 41//49
f 44//50 45//51 43//50
f 46//51 47//52 45//51
f 48//52 49//53 47//52
f 50//53 51//54 49//53
f 52//54 1//29 51//54
f 76//27 56//27 64//27
f 2//29 4//30 3//30
f 4//30 6//31 5//31
f 6//31 8//32 7//32
f 8//32 10//33 9//33
f 10//33 12//34 11//34
f 12//34 14//35 13//35
f 14//35 16//36 15//36
f 16//36 18//37 17//37
f 18//37 20//38 19//38
f 20//38 22//39 21//39
f 22//39 24//40 23//40
f 24//40 26//41 25//41
f 26//41 28//42 27//42
f 28//42 30//43 29//43
f 30//43 32//44 31//44
f 32//44 34//45 33//45
f 34//45 36//46 35//46
f 36//46 38//47 37//47
f 38//47 40//48 39//48
f 40//48 42//49 41//49
f 42//49 44//50 43//50
f 44//50 46//51 45//51
f 46//51 48//52 47//52
f 48//52 50//53 49//53
f 50//53 52//54 51//54
f 52//54 2//29 1//29
f 78//27 53//27 54//27
f 54//27 55//27 78//27
f 55//27 56//27 78//27
f 56//27 57//27 58//27
f 58//27 59//27 56//27
f 59//27 60//27 56//27
f 60//27 61//27 62//27
f 62//27 63//27 64//27
f 64//27 65//27 66//27
f 66//27 67//27 68//27
f 68//27 69//27 70//27
f 70//27 71//27 72//27
f 72//27 73//27 74//27
f 74//27 75//27 72//27
f 75//27 76//27 72//27
f 76//27 77//27 78//27
f 60//27 62//27 64//27
f 64//27 66//27 68//27
f 68//27 70//27 72//27
f 76//27 78//27 56//27
f 56//27 60//27 64//27
f 64//27 68//27 72//27
f 72//27 76//27 64//27
