v -0.005343 0.003977 0.000000
v 0.184731 0.003977 -0.000000
v -0.005343 0.003861 -0.000952
v 0.184731 0.003861 -0.000952
v -0.005343 0.003521 -0.001848
v 0.184731 0.003521 -0.001848
v -0.005343 0.002977 -0.002637
v 0.184731 0.002977 -0.002637
v -0.005343 0.002259 -0.003273
v 0.184731 0.002259 -0.003273
v -0.005343 0.001410 -0.003718
v 0.184731 0.001410 -0.003718
v -0.005343 0.000479 -0.003948
v 0.184731 0.000479 -0.003948
v -0.005343 -0.000479 -0.003948
v 0.184731 -0.000479 -0.003948
v -0.005343 -0.001410 -0.003718
v 0.184731 -0.001410 -0.003718
v -0.005343 -0.002259 -0.003273
v 0.184731 -0.002259 -0.003273
v -0.005343 -0.002977 -0.002637
v 0.184731 -0.002977 -0.002637
v -0.005343 -0.003521 -0.001848
v 0.184731 -0.003521 -0.001848
v -0.005343 -0.003861 -0.000952
v 0.184731 -0.003861 -0.000952
v -0.005343 -0.003977 0.000000
v 0.184731 -0.003977 -0.000000
v -0.005343 -0.003861 0.000952
v 0.184731 -0.003861 0.000952
v -0.005343 -0.003521 0.001848
v 0.184731 -0.003521 0.001848
v -0.005343 -0.002977 0.002637
v 0.184731 -0.002977 0.002637
v -0.005343 -0.002259 0.003273
v 0.184731 -0.002259 0.003273
v -0.005343 -0.001410 0.003718
v 0.184731 -0.001410 0.003718
v -0.005343 -0.000479 0.003948
v 0.184731 -0.000479 0.003948
v -0.005343 0.000479 0.003948
v 0.184731 0.000479 0.003948
v -0.005343 0.001410 0.003718
v 0.184731 0.001410 0.003718
v -0.005343 0.002259 0.003273
v 0.184731 0.002259 0.003273
v -0.005343 0.002977 0.002637
v 0.184731 0.002977 0.002637
v -0.005343 0.003521 0.001848
v 0.184731 0.003521 0.001848
v -0.005343 0.003861 0.000952
v 0.184731 0.003861 0.000952
v -0.005343 0.003977 0.000000
v -0.005343 0.003861 -0.000952
v -0.005343 0.003521 -0.001848
v -0.005343 0.002977 -0.002637
v -0.005343 0.002259 -0.003273
v -0.005343 0.001410 -0.003718
v -0.005343 0.000479 -0.003948
v -0.005343 -0.000479 -0.003948
v -0.005343 -0.001410 -0.003718
v -0.005343 -0.002259 -0.003273
v -0.005343 -0.002977 -0.002637
v -0.005343 -0.003521 -0.001848
v -0.005343 -0.003861 -0.000952
v -0.005343 -0.003977 0.000000
v -0.005343 -0.003861 0.000952
v -0.005343 -0.003521 0.001848
v -0.005343 -0.002977 0.002637
v -0.005343 -0.002259 0.003273
v -0.005343 -0.001410 0.003718
v -0.005343 -0.000479 0.003948
v -0.005343 0.000479 0.003948
v -0.005343 0.001410 0.003718
v -0.005343 0.002259 0.003273
v -0.005343 0.002977 0.002637
v -0.005343 0.003521 0.001848
v -0.005343 0.003861 0.000952
v 0.183987 0.009395 -0.000000
v 0.183987 0.009075 -0.002432
v 0.183987 0.008136 -0.004698
v 0.183987 0.006643 -0.006643
v 0.183987 0.004698 -0.008136
v 0.183987 0.002432 -0.009075
v 0.183987 -0.000000 -0.009395
v 0.183987 -0.002432 -0.009075
v 0.183987 -0.004698 -0.008136
v 0.183987 -0.006643 -0.006643
v 0.183987 -0.008136 -0.004698
v 0.183987 -0.009075 -0.002432
v 0.183987 -0.009395 -0.000000
v 0.183987 -0.009075 0.002432
v 0.183987 -0.008136 0.004698
v 0.183987 -0.006643 0.006643
v 0.183987 -0.004698 0.008136
v 0.183987 -0.002432 0.009075
v 0.183987 0.000000 0.009395
v 0.183987 0.002432 0.009075
v 0.183987 0.004698 0.008136
v 0.183987 0.006643 0.006643
v 0.183987 0.008136 0.004698
v 0.183987 0.009075 0.002432
v 0.204009 0.000000 -0.000000
v 0.183987 -0.005671 0.007390
v 0.183987 0.009395 -0.000000
v 0.183987 0.009075 -0.002432
v 0.183987 0.008136 -0.004698
v 0.183987 0.006643 -0.006643
v 0.183987 0.004698 -0.008136
v 0.183987 0.002432 -0.009075
v 0.183987 -0.000000 -0.009395
v 0.183987 -0.002432 -0.009075
v 0.183987 -0.004698 -0.008136
v 0.183987 -0.006643 -0.006643
v 0.183987 -0.008136 -0.004698
v 0.183987 -0.009075 -0.002432
v 0.183987 -0.009395 -0.000000
v 0.183987 -0.009075 0.002432
v 0.183987 -0.008136 0.004698
v 0.183987 -0.006643 0.006643
v 0.183987 -0.004698 0.008136
v 0.183987 -0.002432 0.009075
v 0.183987 0.000000 0.009395
v 0.183987 0.002432 0.009075
v 0.183987 0.004698 0.008136
v 0.183987 0.006643 0.006643
v 0.183987 0.008136 0.004698
v 0.183987 0.009075 0.002432
v 0.183987 -0.005671 0.007390
vn 0.4218 0.8989 -0.1183
vn 0.4218 0.8377 -0.3470
vn 0.4218 0.7193 -0.5520
vn 0.4218 0.5519 -0.7193
vn 0.4218 0.3470 -0.8377
vn 0.4218 0.1183 -0.8989
vn 0.4218 -0.1183 -0.8989
vn 0.4218 -0.3470 -0.8377
vn 0.4218 -0.5519 -0.7193
vn 0.4218 -0.7193 -0.5520
vn 0.4218 -0.8377 -0.3470
vn 0.4218 -0.8989 -0.1183
vn 0.4218 -0.8989 0.1183
vn 0.4218 -0.8377 0.3470
vn 0.4218 -0.7193 0.5520
vn 0.4218 -0.5519 0.7193
vn 0.4218 -0.3470 0.8377
vn 0.4218 -0.1183 0.8989
vn 0.4218 0.1183 0.8989
vn 0.4218 0.3470 0.8377
vn 0.4218 0.5520 0.7193
vn 0.4218 0.7193 0.5520
vn 0.4218 0.8377 0.3470
vn 0.4218 0.8989 0.1183
vn -1.0000 0.0000 0.0000
vn 0.4218 -0.5520 0.7193
vn 0.0000 1.0000 -0.0000
vn -0.0000 0.9709 -0.2393
vn -0.0000 0.8855 -0.4647
vn -0.0000 0.7485 -0.6631
vn -0.0000 0.5681 -0.8230
vn -0.0000 0.3546 -0.9350
vn -0.0000 0.1205 -0.9927
vn -0.0000 -0.1205 -0.9927
vn -0.0000 -0.3546 -0.9350
vn -0.0000 -0.5681 -0.8230
vn -0.0000 -0.7485 -0.6631
vn -0.0000 -0.8855 -0.4647
vn -0.0000 -0.9709 -0.2393
vn 0.0000 -1.0000 -0.0000
vn 0.0000 -0.9709 0.2393
vn 0.0000 -0.8855 0.4647
vn 0.0000 -0.7485 0.6631
vn 0.0000 -0.5681 0.8230
vn 0.0000 -0.3546 0.9350
vn 0.0000 -0.1205 0.9927
vn 0.0000 0.1205 0.9927
vn 0.0000 0.3546 0.9350
vn 0.0000 0.5681 0.8230
vn 0.0000 0.7485 0.6631
vn 0.0000 0.8855 0.4647
vn 0.0000 0.9709 0.2393
s off
f 79//1 103//1 80//1
f 80//2 103//2 81//2
f 81//3 103//3 82//3
f 82//4 103//4 83//4
f 83//5 103//5 84//5
f 84//6 103//6 85//6
f 85//7 103//7 86//7
f 86//8 103//8 87//8
f 87//9 103//9 88//9
f 88//10 103//10 89//10
f 89//11 103//11 90//11
f 90//12 103//12 91//12
f 91//13 103//13 92//13
f 92//14 103//14 93//14
f 93//15 103//15 94//15
f 103//16 104//16 94//16
f 95//17 103//17 96//17
f 96//18 103//18 97//18
f 97//19 103//19 98//19
f 98//20 103//20 99//20
f 99//21 103//21 100//21
f 100//22 103//22 101//22
f 101//23 103//23 102//23
f 102//24 103//24 79//24
f 129//25 122//25 123//25
f 103//26 95//26 104//26
f 128//25 105//25 129//25
f 105//25 106//25 129//25
f 106//25 107//25 129//25
f 107//25 108//25 129//25
f 108//25 109//25 129//25
f 109//25 110//25 129//25
f 110//25 111//25 129//25
f 111//25 112//25 129//25
f 112//25 113//25 129//25
f 113//25 114//25 129//25
f 114//25 115//25 129//25
f 115//25 116//25 129//25
f 116//25 117//25 129//25
f 117//25 118//25 129//25
f 118//25 119//25 129//25
f 119//25 120//25 129//25
f 129//25 121//25 122//25
f 127//25 128//25 129//25
f 125//25 126//25 129//25
f 126//25 127//25 129//25
f 123//25 124//25 129//25
f 124//25 125//25 129//25
s 1
f 2//27 3//28 1//27
f 4//28 5//29 3//28
f 6//29 7//30 5//29
f 8//30 9//31 7//30
f 10//31 11//32 9//31
f 12//32 13//33 11//32
f 14//33 15//34 13//33
f 16//34 17//35 15//34
f 18//35 19//36 17//35
f 20//36 21//37 19//36
f 22//37 23//38 21//37
f 24//38 25//39 23//38
f 26//39 27//40 25//39
f 28//40 29//41 27//40
f 30//41 31//42 29//41
f 32//42 33//43 31//42
f 34//43 35//44 33//43
f 36//44 37//45 35//44
f 38//45 39//46 37//45
f 40//46 41//47 39//46
f 42//47 43//48 41//47
f 44//48 45//49 43//48
f 46//49 47//50 45//49
f 48//50 49//51 47//50
f 50//51 51//52 49//51
f 52//52 1//27 51//52
f 76//25 56//25 64//25
f 2//27 4//28 3//28
f 4//28 6//29 5//29
f 6//29 8//30 7//30
f 8//30 10//31 9//31
f 10//31 12//32 11//32
f 12//32 14//33 13//33
f 14//33 16//34 15//34
f 16//34 18//35 17//35
f 18//35 20//36 19//36
f 20//36 22//37 21//37
f 22//37 24//38 23//38
f 24//38 26//39 25//39
f 26//39 28//40 27//40
f 28//40 30//41 29//41
f 30//41 32//42 31//42
f 32//42 34//43 33//43
f 34//43 36//44 35//44
f 36//44 38//45 37//45
f 38//45 40//46 39//46
f 40//46 42//47 41//47
f 42//47 44//48 43//48
f 44//48 46//49 45//49
f 46//49 48//50 47//50
f 48//50 50//51 49//51
f 50//51 52//52 51//52
f 52//52 2//27 1//27
f 78//25 53//25 54//25
f 54//25 55//25 78//25
f 55//25 56//25 78//25
f 56//25 57//25 58//25
f 58//25 59//25 56//25
f 59//25 60//25 56//25
f 60//25 61//25 62//25
f 62//25 63//25 64//25
f 64//25 65//25 66//25
f 66//25 67//25 68//25
f 68//25 69//25 70//25
f 70//25 71//25 72//25
f 72//25 73//25 74//25
f 74//25 75//25 72//25
f 75//25 76//25 72//25
f 76//25 77//25 78//25
f 60//25 62//25 64//25
f 64//25 66//25 68//25
f 68//25 70//25 72//25
f 76//25 78//25 56//25
f 56//25 60//25 64//25
f 64//25 68//25 72//25
f 72//25 76//25 64//25
