v 0.000000 0.029376 0.800053
v 0.005731 0.028811 0.800053
v 0.011242 0.027140 0.800053
v 0.016320 0.024425 0.800053
v 0.020772 0.020772 0.800053
v 0.024425 0.016320 0.800053
v 0.027140 0.011242 0.800053
v 0.028812 0.005731 0.800053
v 0.029376 -0.000000 0.800053
v 0.028812 -0.005731 0.800053
v 0.027140 -0.011242 0.800053
v 0.024425 -0.016320 0.800053
v 0.020772 -0.020772 0.800053
v 0.016320 -0.024425 0.800053
v 0.011242 -0.027140 0.800053
v 0.005731 -0.028811 0.800053
v 0.000000 -0.029376 0.800053
v -0.005731 -0.028811 0.800053
v -0.011242 -0.027140 0.800053
v -0.016320 -0.024425 0.800053
v -0.020772 -0.020772 0.800053
v -0.024425 -0.016320 0.800053
v -0.027140 -0.011242 0.800053
v -0.028811 -0.005731 0.800053
v -0.029376 -0.000000 0.800053
v -0.028811 0.005731 0.800053
v -0.027140 0.011242 0.800053
v -0.024425 0.016320 0.800053
v -0.020772 0.020772 0.800053
v -0.016320 0.024425 0.800053
v -0.011242 0.027140 0.800053
v -0.005731 0.028811 0.800053
v 0.000000 -0.000000 0.879950
v 0.000000 0.016562 0.800053
v 0.003231 0.016244 0.800053
v 0.006338 0.015302 0.800053
v 0.009202 0.013771 0.800053
v 0.011711 0.011711 0.800053
v 0.015302 0.006338 0.800053
v 0.016244 0.003231 0.800053
v 0.016562 -0.000000 0.800053
v 0.016244 -0.003231 0.800053
v 0.015302 -0.006338 0.800053
v 0.013771 -0.009202 0.800053
v 0.011711 -0.011711 0.800053
v 0.009202 -0.013771 0.800053
v 0.006338 -0.015302 0.800053
v 0.003231 -0.016244 0.800053
v 0.000000 -0.016562 0.800053
v -0.003231 -0.016244 0.800053
v -0.006338 -0.015302 0.800053
v -0.009202 -0.013771 0.800053
v -0.011711 -0.011711 0.800053
v -0.013771 -0.009202 0.800053
v -0.015302 -0.006338 0.800053
v -0.016244 -0.003231 0.800053
v -0.016562 -0.000000 0.800053
v -0.016244 0.003231 0.800053
v -0.015302 0.006338 0.800053
v -0.013771 0.009202 0.800053
v -0.009202 0.013771 0.800053
v -0.006338 0.015302 0.800053
v -0.003231 0.016244 0.800053
v 0.000000 0.016562 0.800053
v 0.003231 0.016244 0.800053
v 0.006338 0.015302 0.800053
v 0.009202 0.013771 0.800053
v 0.011711 0.011711 0.800053
v 0.015302 0.006338 0.800053
v 0.016244 0.003231 0.800053
v 0.016562 -0.000000 0.800053
v 0.016244 -0.003231 0.800053
v 0.015302 -0.006338 0.800053
v 0.013771 -0.009202 0.800053
v 0.011711 -0.011711 0.800053
v 0.009202 -0.013771 0.800053
v 0.006338 -0.015302 0.800053
v 0.003231 -0.016244 0.800053
v 0.000000 -0.016562 0.800053
v -0.003231 -0.016244 0.800053
v -0.006338 -0.015302 0.800053
v -0.009202 -0.013771 0.800053
v -0.011711 -0.011711 0.800053
v -0.013771 -0.009202 0.800053
v -0.015302 -0.006338 0.800053
v -0.016244 -0.003231 0.800053
v -0.016562 -0.000000 0.800053
v -0.016244 0.003231 0.800053
v -0.015302 0.006338 0.800053
v -0.013771 0.009202 0.800053
v -0.009202 0.013771 0.800053
v -0.006338 0.015302 0.800053
v -0.003231 0.016244 0.800053
v -0.002275 0.011437 0.800053
v -0.004462 0.010773 0.800053
v -0.006478 0.009695 0.800053
v -0.008245 0.008245 0.800053
v -0.009695 0.006478 0.800053
v -0.010773 0.004462 0.800053
v -0.011437 0.002275 0.800053
v -0.011661 -0.000000 0.800053
v -0.011437 -0.002275 0.800053
v -0.010773 -0.004462 0.800053
v -0.009695 -0.006478 0.800053
v -0.008245 -0.008245 0.800053
v -0.006478 -0.009695 0.800053
v -0.004462 -0.010773 0.800053
v -0.002275 -0.011437 0.800053
v 0.000000 -0.011661 0.800053
v 0.002275 -0.011437 0.800053
v 0.004462 -0.010773 0.800053
v 0.006478 -0.009695 0.800053
v 0.008245 -0.008245 0.800053
v 0.009695 -0.006478 0.800053
v 0.010773 -0.004462 0.800053
v 0.011437 -0.002275 0.800053
v 0.011661 -0.000000 0.800053
v 0.011437 0.002275 0.800053
v 0.010773 0.004462 0.800053
v 0.009695 0.006478 0.800053
v 0.008245 0.008245 0.800053
v 0.006478 0.009695 0.800053
v 0.004462 0.010773 0.800053
v 0.002275 0.011437 0.800053
v 0.000000 0.011661 0.800053
v 0.002275 0.011437 -0.018185
v 0.004462 0.010773 -0.018185
v 0.011661 -0.000000 -0.018185
v 0.011437 -0.002275 -0.018185
v -0.004462 0.010773 -0.018185
v -0.002275 0.011437 -0.018185
v 0.000000 0.011661 -0.018185
v 0.011437 0.002275 -0.018185
v -0.006478 0.009695 -0.018185
v 0.010773 0.004462 -0.018185
v 0.006478 -0.009695 -0.018185
v 0.004462 -0.010773 -0.018185
v -0.008245 0.008245 -0.018185
v 0.009695 0.006478 -0.018185
v 0.008245 -0.008245 -0.018185
v -0.009695 0.006478 -0.018185
v 0.008245 0.008245 -0.018185
v 0.009695 -0.006478 -0.018185
v -0.010773 0.004462 -0.018185
v 0.006478 0.009695 -0.018185
v 0.010773 -0.004462 -0.018185
v -0.011437 0.002275 -0.018185
v -0.011661 -0.000000 -0.018185
v -0.004462 -0.010773 -0.018185
v -0.006478 -0.009695 -0.018185
v -0.011437 -0.002275 -0.018185
v -0.002275 -0.011437 -0.018185
v -0.010773 -0.004462 -0.018185
v 0.000000 -0.011661 -0.018185
v -0.009695 -0.006478 -0.018185
v 0.002275 -0.011437 -0.018185
v -0.008245 -0.008245 -0.018185
vn 0.0921 0.9346 0.3436
vn 0.2726 0.8987 0.3436
vn 0.4427 0.8282 0.3436
vn 0.5958 0.7259 0.3436
vn 0.7259 0.5958 0.3436
vn 0.8282 0.4427 0.3436
vn 0.8987 0.2726 0.3436
vn 0.9346 0.0920 0.3436
vn 0.9346 -0.0920 0.3436
vn 0.8987 -0.2726 0.3436
vn 0.8282 -0.4427 0.3436
vn 0.7259 -0.5958 0.3436
vn 0.5958 -0.7259 0.3436
vn 0.4427 -0.8282 0.3436
vn 0.2726 -0.8987 0.3436
vn 0.0921 -0.9346 0.3436
vn -0.0921 -0.9346 0.3436
vn -0.2726 -0.8987 0.3436
vn -0.4427 -0.8282 0.3436
vn -0.5958 -0.7259 0.3436
vn -0.7259 -0.5958 0.3436
vn -0.8282 -0.4427 0.3436
vn -0.8987 -0.2726 0.3436
vn -0.9346 -0.0920 0.3436
vn -0.9346 0.0920 0.3436
vn -0.8987 0.2726 0.3436
vn -0.8282 0.4427 0.3436
vn -0.7259 0.5958 0.3436
vn -0.5958 0.7259 0.3436
vn -0.4427 0.8282 0.3436
vn -0.2726 0.8987 0.3436
vn -0.0921 0.9346 0.3436
vn 0.0000 0.0000 -1.0000
vn -0.0001 -0.0000 -1.0000
vn -0.0980 0.9952 0.0000
vn 0.9569 -0.2903 0.0000
vn 0.4714 0.8819 0.0000
vn -0.6344 -0.7730 0.0000
vn 0.2903 -0.9569 0.0000
vn -0.7730 -0.6344 0.0000
vn 0.0980 -0.9952 0.0000
vn -0.8819 -0.4714 0.0000
vn -0.0980 -0.9952 0.0000
vn -0.9569 -0.2903 0.0000
vn -0.2903 -0.9569 0.0000
vn -0.9952 -0.0980 0.0000
vn -0.4714 -0.8819 0.0000
vn -0.9952 0.0980 0.0000
vn -0.9569 0.2903 0.0000
vn 0.8819 -0.4714 0.0000
vn 0.6344 0.7730 0.0000
vn -0.8819 0.4714 0.0000
vn 0.7730 -0.6344 0.0000
vn 0.7730 0.6344 0.0000
vn -0.7730 0.6344 0.0000
vn 0.6344 -0.7730 0.0000
vn 0.8819 0.4714 0.0000
vn -0.6344 0.7730 0.0000
vn 0.4714 -0.8819 0.0000
vn 0.9569 0.2903 0.0000
vn -0.4714 0.8819 0.0000
vn 0.9952 0.0980 0.0000
vn 0.0980 0.9952 0.0000
vn -0.2903 0.9569 0.0000
vn 0.9952 -0.0980 0.0000
vn 0.2903 0.9569 0.0000
s off
f 1//1 33//1 2//1
f 2//2 33//2 3//2
f 3//3 33//3 4//3
f 4//4 33//4 5//4
f 5//5 33//5 6//5
f 6//6 33//6 7//6
f 7//7 33//7 8//7
f 8//8 33//8 9//8
f 9//9 33//9 10//9
f 10//10 33//10 11//10
f 11//11 33//11 12//11
f 12//12 33//12 13//12
f 13//13 33//13 14//13
f 14//14 33//14 15//14
f 15//15 33//15 16//15
f 16//16 33//16 17//16
f 17//17 33//17 18//17
f 18//18 33//18 19//18
f 19//19 33//19 20//19
f 20//20 33//20 21//20
f 21//21 33//21 22//21
f 22//22 33//22 23//22
f 23//23 33//23 24//23
f 24//24 33//24 25//24
f 25//25 33//25 26//25
f 26//26 33//26 27//26
f 27//27 33//27 28//27
f 28//28 33//28 29//28
f 29//29 33//29 30//29
f 30//30 33//30 31//30
f 31//31 33//31 32//31
f 32//32 33//32 1//32
f 1//33 124//33 125//33
f 4//33 123//33 3//33
f 8//33 119//33 7//33
f 24//33 103//33 23//33
f 27//33 98//33 99//33
f 13//33 112//33 113//33
f 16//33 109//33 110//33
f 20//34 105//34 106//34
f 6//33 119//33 120//33
f 9//33 116//33 117//33
f 27//33 100//33 26//33
f 30//33 97//33 29//33
f 3//33 124//33 2//33
f 18//33 107//33 108//33
f 23//33 104//33 22//33
f 12//33 115//33 11//33
f 32//33 95//33 31//33
f 16//33 111//33 15//33
f 4//33 121//33 122//33
f 9//33 118//33 8//33
f 25//33 102//33 24//33
f 29//33 98//33 28//33
f 18//33 109//33 17//33
f 21//33 104//33 105//33
f 11//33 116//33 10//33
f 14//33 111//33 112//33
f 30//33 95//33 96//33
f 20//33 107//33 19//33
f 13//33 114//33 12//33
f 1//33 94//33 32//33
f 6//33 121//33 5//33
f 25//33 100//33 101//33
f 156//33 151//33 131//33
f 125//35 131//35 94//35
f 115//36 129//36 116//36
f 122//37 127//37 123//37
f 105//38 150//38 106//38
f 110//39 137//39 111//39
f 104//40 157//40 105//40
f 109//41 156//41 110//41
f 103//42 155//42 104//42
f 108//43 154//43 109//43
f 102//44 153//44 103//44
f 107//45 152//45 108//45
f 101//46 151//46 102//46
f 106//47 149//47 107//47
f 100//48 148//48 101//48
f 99//49 147//49 100//49
f 114//50 146//50 115//50
f 121//51 145//51 122//51
f 98//52 144//52 99//52
f 113//53 143//53 114//53
f 120//54 142//54 121//54
f 97//55 141//55 98//55
f 112//56 140//56 113//56
f 119//57 139//57 120//57
f 96//58 138//58 97//58
f 111//59 136//59 112//59
f 118//60 135//60 119//60
f 95//61 134//61 96//61
f 117//62 133//62 118//62
f 124//63 132//63 125//63
f 94//64 130//64 95//64
f 116//65 128//65 117//65
f 123//66 126//66 124//66
f 1//33 2//33 124//33
f 4//33 122//33 123//33
f 8//33 118//33 119//33
f 24//33 102//33 103//33
f 27//33 28//33 98//33
f 13//33 14//33 112//33
f 16//33 17//33 109//33
f 20//33 21//33 105//33
f 6//33 7//33 119//33
f 9//33 10//33 116//33
f 27//33 99//33 100//33
f 30//33 96//33 97//33
f 3//33 123//33 124//33
f 18//33 19//33 107//33
f 23//33 103//33 104//33
f 12//33 114//33 115//33
f 32//33 94//33 95//33
f 16//33 110//33 111//33
f 4//33 5//33 121//33
f 9//33 117//33 118//33
f 25//33 101//33 102//33
f 29//33 97//33 98//33
f 18//33 108//33 109//33
f 21//33 22//33 104//33
f 11//33 115//33 116//33
f 14//33 15//33 111//33
f 30//33 31//33 95//33
f 20//33 106//33 107//33
f 13//33 113//33 114//33
f 1//33 125//33 94//33
f 6//33 120//33 121//33
f 25//33 26//33 100//33
f 131//33 132//33 145//33
f 132//33 126//33 145//33
f 126//33 127//33 145//33
f 145//33 142//33 139//33
f 139//33 135//33 133//33
f 133//33 128//33 143//33
f 128//33 129//33 143//33
f 129//33 146//33 143//33
f 143//33 140//33 156//33
f 140//33 136//33 156//33
f 136//33 137//33 156//33
f 156//33 154//33 152//33
f 152//33 149//33 150//33
f 150//33 157//33 155//33
f 155//33 153//33 150//33
f 153//33 151//33 150//33
f 151//33 148//33 147//33
f 147//33 144//33 141//33
f 141//33 138//33 134//33
f 134//33 130//33 131//33
f 145//33 139//33 131//33
f 139//33 133//33 131//33
f 156//33 152//33 151//33
f 152//33 150//33 151//33
f 151//33 147//33 131//33
f 147//33 141//33 131//33
f 141//33 134//33 131//33
f 133//33 143//33 131//33
f 143//33 156//33 131//33
f 125//35 132//35 131//35
f 115//36 146//36 129//36
f 122//37 145//37 127//37
f 105//38 157//38 150//38
f 110//39 156//39 137//39
f 104//40 155//40 157//40
f 109//41 154//41 156//41
f 103//42 153//42 155//42
f 108//43 152//43 154//43
f 102//44 151//44 153//44
f 107//45 149//45 152//45
f 101//46 148//46 151//46
f 106//47 150//47 149//47
f 100//48 147//48 148//48
f 99//49 144//49 147//49
f 114//50 143//50 146//50
f 121//51 142//51 145//51
f 98//52 141//52 144//52
f 113//53 140//53 143//53
f 120//54 139//54 142//54
f 97//55 138//55 141//55
f 112//56 136//56 140//56
f 119//57 135//57 139//57
f 96//58 134//58 138//58
f 111//59 137//59 136//59
f 118//60 133//60 135//60
f 95//61 130//61 134//61
f 117//62 128//62 133//62
f 124//63 126//63 132//63
f 94//64 131//64 130//64
f 116//65 129//65 128//65
f 123//66 127//66 126//66