v 0.800053 0.029376 -0.000000
v 0.800053 0.028811 -0.005731
v 0.800053 0.027140 -0.011242
v 0.800053 0.024425 -0.016320
v 0.800053 0.020772 -0.020772
v 0.800053 0.016320 -0.024425
v 0.800053 0.011242 -0.027140
v 0.800053 0.005731 -0.028812
v 0.800053 -0.000000 -0.029376
v 0.800053 -0.005731 -0.028812
v 0.800053 -0.011242 -0.027140
v 0.800053 -0.016320 -0.024425
v 0.800053 -0.020772 -0.020772
v 0.800053 -0.024425 -0.016320
v 0.800053 -0.027140 -0.011242
v 0.800053 -0.028811 -0.005731
v 0.800053 -0.029376 -0.000000
v 0.800053 -0.028811 0.005731
v 0.800053 -0.027140 0.011242
v 0.800053 -0.024425 0.016320
v 0.800053 -0.020772 0.020772
v 0.800053 -0.016320 0.024425
v 0.800053 -0.011242 0.027140
v 0.800053 -0.005731 0.028811
v 0.800053 -0.000000 0.029376
v 0.800053 0.005731 0.028811
v 0.800053 0.011242 0.027140
v 0.800053 0.016320 0.024425
v 0.800053 0.020772 0.020772
v 0.800053 0.024425 0.016320
v 0.800053 0.027140 0.011242
v 0.800053 0.028811 0.005731
v 0.879950 -0.000000 -0.000000
v 0.800053 0.016562 -0.000000
v 0.800053 0.016244 -0.003231
v 0.800053 0.015302 -0.006338
v 0.800053 0.013771 -0.009202
v 0.800053 0.011711 -0.011711
v 0.800053 0.006338 -0.015302
v 0.800053 0.003231 -0.016244
v 0.800053 -0.000000 -0.016562
v 0.800053 -0.003231 -0.016244
v 0.800053 -0.006338 -0.015302
v 0.800053 -0.009202 -0.013771
v 0.800053 -0.011711 -0.011711
v 0.800053 -0.013771 -0.009202
v 0.800053 -0.015302 -0.006338
v 0.800053 -0.016244 -0.003231
v 0.800053 -0.016562 -0.000000
v 0.800053 -0.016244 0.003231
v 0.800053 -0.015302 0.006338
v 0.800053 -0.013771 0.009201
v 0.800053 -0.011711 0.011711
v 0.800053 -0.009202 0.013771
v 0.800053 -0.006338 0.015302
v 0.800053 -0.003231 0.016244
v 0.800053 -0.000000 0.016562
v 0.800053 0.003231 0.016244
v 0.800053 0.006338 0.015302
v 0.800053 0.009202 0.013771
v 0.800053 0.013771 0.009201
v 0.800053 0.015302 0.006338
v 0.800053 0.016244 0.003231
v 0.800053 0.016562 -0.000000
v 0.800053 0.016244 -0.003231
v 0.800053 0.015302 -0.006338
v 0.800053 0.013771 -0.009202
v 0.800053 0.011711 -0.011711
v 0.800053 0.006338 -0.015302
v 0.800053 0.003231 -0.016244
v 0.800053 -0.000000 -0.016562
v 0.800053 -0.003231 -0.016244
v 0.800053 -0.006338 -0.015302
v 0.800053 -0.009202 -0.013771
v 0.800053 -0.011711 -0.011711
v 0.800053 -0.013771 -0.009202
v 0.800053 -0.015302 -0.006338
v 0.800053 -0.016244 -0.003231
v 0.800053 -0.016562 -0.000000
v 0.800053 -0.016244 0.003231
v 0.800053 -0.015302 0.006338
v 0.800053 -0.013771 0.009201
v 0.800053 -0.011711 0.011711
v 0.800053 -0.009202 0.013771
v 0.800053 -0.006338 0.015302
v 0.800053 -0.003231 0.016244
v 0.800053 -0.000000 0.016562
v 0.800053 0.003231 0.016244
v 0.800053 0.006338 0.015302
v 0.800053 0.009202 0.013771
v 0.800053 0.013771 0.009201
v 0.800053 0.015302 0.006338
v 0.800053 0.016244 0.003231
v 0.800053 0.011437 0.002275
v 0.800053 0.010773 0.004462
v 0.800053 0.009695 0.006478
v 0.800053 0.008245 0.008245
v 0.800053 0.006478 0.009695
v 0.800053 0.004462 0.010773
v 0.800053 0.002275 0.011437
v 0.800053 -0.000000 0.011661
v 0.800053 -0.002275 0.011437
v 0.800053 -0.004462 0.010773
v 0.800053 -0.006478 0.009695
v 0.800053 -0.008245 0.008245
v 0.800053 -0.009695 0.006478
v 0.800053 -0.010773 0.004462
v 0.800053 -0.011437 0.002275
v 0.800053 -0.011661 -0.000000
v 0.800053 -0.011437 -0.002275
v 0.800053 -0.010773 -0.004462
v 0.800053 -0.009695 -0.006478
v 0.800053 -0.008245 -0.008245
v 0.800053 -0.006478 -0.009695
v 0.800053 -0.004462 -0.010773
v 0.800053 -0.002275 -0.011437
v 0.800053 -0.000000 -0.011661
v 0.800053 0.002275 -0.011437
v 0.800053 0.004462 -0.010773
v 0.800053 0.006478 -0.009695
v 0.800053 0.008245 -0.008245
v 0.800053 0.009695 -0.006478
v 0.800053 0.010773 -0.004462
v 0.800053 0.011437 -0.002275
v 0.800053 0.011661 -0.000000
v -0.018185 0.011437 -0.002275
v -0.018185 0.010773 -0.004462
v -0.018185 -0.000000 -0.011661
v -0.018185 -0.002275 -0.011437
v -0.018185 0.010773 0.004462
v -0.018185 0.011437 0.002275
v -0.018185 0.011661 -0.000000
v -0.018185 0.002275 -0.011437
v -0.018185 0.009695 0.006478
v -0.018185 0.004462 -0.010773
v -0.018185 -0.009695 -0.006478
v -0.018185 -0.010773 -0.004462
v -0.018185 0.008245 0.008245
v -0.018185 0.006478 -0.009695
v -0.018185 -0.008245 -0.008245
v -0.018185 0.006478 0.009695
v -0.018185 0.008245 -0.008245
v -0.018185 -0.006478 -0.009695
v -0.018185 0.004462 0.010773
v -0.018185 0.009695 -0.006478
v -0.018185 -0.004462 -0.010773
v -0.018185 0.002275 0.011437
v -0.018185 -0.000000 0.011661
v -0.018185 -0.010773 0.004462
v -0.018185 -0.009695 0.006478
v -0.018185 -0.002275 0.011437
v -0.018185 -0.011437 0.002275
v -0.018185 -0.004462 0.010773
v -0.018185 -0.011661 -0.000000
v -0.018185 -0.006478 0.009695
v -0.018185 -0.011437 -0.002275
v -0.018185 -0.008245 0.008245
vn 0.3436 0.9346 -0.0920
vn 0.3436 0.8987 -0.2726
vn 0.3436 0.8282 -0.4427
vn 0.3436 0.7259 -0.5958
vn 0.3436 0.5958 -0.7259
vn 0.3436 0.4427 -0.8282
vn 0.3436 0.2726 -0.8987
vn 0.3436 0.0921 -0.9346
vn 0.3436 -0.0921 -0.9346
vn 0.3436 -0.2726 -0.8987
vn 0.3436 -0.4427 -0.8282
vn 0.3436 -0.5958 -0.7259
vn 0.3436 -0.7259 -0.5958
vn 0.3436 -0.8282 -0.4427
vn 0.3436 -0.8987 -0.2726
vn 0.3436 -0.9346 -0.0920
vn 0.3436 -0.9346 0.0920
vn 0.3436 -0.8987 0.2726
vn 0.3436 -0.8282 0.4427
vn 0.3436 -0.7259 0.5958
vn 0.3436 -0.5958 0.7259
vn 0.3436 -0.4427 0.8282
vn 0.3436 -0.2726 0.8987
vn 0.3436 -0.0921 0.9346
vn 0.3436 0.0921 0.9346
vn 0.3436 0.2726 0.8987
vn 0.3436 0.4427 0.8282
vn 0.3436 0.5958 0.7259
vn 0.3436 0.7259 0.5958
vn 0.3436 0.8282 0.4427
vn 0.3436 0.8987 0.2726
vn 0.3436 0.9346 0.0920
vn -1.0000 0.0000 -0.0000
vn 0.0000 0.9952 0.0980
vn -0.0000 -0.2903 -0.9569
vn -0.0000 0.8819 -0.4714
vn 0.0000 -0.7730 0.6344
vn -0.0000 -0.9569 -0.2903
vn 0.0000 -0.6344 0.7730
vn -0.0000 -0.9952 -0.0980
vn 0.0000 -0.4714 0.8819
vn 0.0000 -0.9952 0.0980
vn 0.0000 -0.2903 0.9569
vn 0.0000 -0.9569 0.2903
vn 0.0000 -0.0980 0.9952
vn 0.0000 -0.8819 0.4714
vn 0.0000 0.0980 0.9952
vn 0.0000 0.2903 0.9569
vn -0.0000 -0.4714 -0.8819
vn -0.0000 0.7730 -0.6344
vn 0.0000 0.4714 0.8819
vn -0.0000 -0.6344 -0.7730
vn -0.0000 0.6344 -0.7730
vn 0.0000 0.6344 0.7730
vn -0.0000 -0.7730 -0.6344
vn -0.0000 0.4714 -0.8819
vn 0.0000 0.7730 0.6344
vn -0.0000 -0.8819 -0.4714
vn -0.0000 0.2903 -0.9569
vn 0.0000 0.8819 0.4714
vn -0.0000 0.0980 -0.9952
vn -0.0000 0.9952 -0.0980
vn 0.0000 0.9569 0.2903
vn -0.0000 -0.0980 -0.9952
vn -0.0000 0.9569 -0.2903
vn -1.0000 0.0001 -0.0000
s off
f 1//1 33//1 2//1
f 2//2 33//2 3//2
f 3//3 33//3 4//3
f 4//4 33//4 5//4
f 5//5 33//5 6//5
f 6//6 33//6 7//6
f 7//7 33//7 8//7
f 8//8 33//8 9//8
f 9//9 33//9 10//9
f 10//10 33//10 11//10
f 11//11 33//11 12//11
f 12//12 33//12 13//12
f 13//13 33//13 14//13
f 14//14 33//14 15//14
f 15//15 33//15 16//15
f 16//16 33//16 17//16
f 17//17 33//17 18//17
f 18//18 33//18 19//18
f 19//19 33//19 20//19
f 20//20 33//20 21//20
f 21//21 33//21 22//21
f 22//22 33//22 23//22
f 23//23 33//23 24//23
f 24//24 33//24 25//24
f 25//25 33//25 26//25
f 26//26 33//26 27//26
f 27//27 33//27 28//27
f 28//28 33//28 29//28
f 29//29 33//29 30//29
f 30//30 33//30 31//30
f 31//31 33//31 32//31
f 32//32 33//32 1//32
f 1//33 124//33 125//33
f 4//33 123//33 3//33
f 8//33 119//33 7//33
f 24//33 103//33 23//33
f 27//33 98//33 99//33
f 13//33 112//33 113//33
f 16//33 109//33 110//33
f 20//33 105//33 106//33
f 6//33 119//33 120//33
f 9//33 116//33 117//33
f 27//33 100//33 26//33
f 30//33 97//33 29//33
f 3//33 124//33 2//33
f 18//33 107//33 108//33
f 23//33 104//33 22//33
f 12//33 115//33 11//33
f 32//33 95//33 31//33
f 16//33 111//33 15//33
f 4//33 121//33 122//33
f 9//33 118//33 8//33
f 25//33 102//33 24//33
f 29//33 98//33 28//33
f 18//33 109//33 17//33
f 21//33 104//33 105//33
f 11//33 116//33 10//33
f 14//33 111//33 112//33
f 30//33 95//33 96//33
f 20//33 107//33 19//33
f 13//33 114//33 12//33
f 1//33 94//33 32//33
f 6//33 121//33 5//33
f 25//33 100//33 101//33
f 156//33 151//33 131//33
f 125//34 131//34 94//34
f 115//35 129//35 116//35
f 122//36 127//36 123//36
f 105//37 150//37 106//37
f 110//38 137//38 111//38
f 104//39 157//39 105//39
f 109//40 156//40 110//40
f 103//41 155//41 104//41
f 108//42 154//42 109//42
f 102//43 153//43 103//43
f 107//44 152//44 108//44
f 101//45 151//45 102//45
f 106//46 149//46 107//46
f 100//47 148//47 101//47
f 99//48 147//48 100//48
f 114//49 146//49 115//49
f 121//50 145//50 122//50
f 98//51 144//51 99//51
f 113//52 143//52 114//52
f 120//53 142//53 121//53
f 97//54 141//54 98//54
f 112//55 140//55 113//55
f 119//56 139//56 120//56
f 96//57 138//57 97//57
f 111//58 136//58 112//58
f 118//59 135//59 119//59
f 95//60 134//60 96//60
f 117//61 133//61 118//61
f 124//62 132//62 125//62
f 94//63 130//63 95//63
f 116//64 128//64 117//64
f 123//65 126//65 124//65
f 1//33 2//33 124//33
f 4//33 122//33 123//33
f 8//33 118//33 119//33
f 24//33 102//33 103//33
f 27//33 28//33 98//33
f 13//33 14//33 112//33
f 16//33 17//33 109//33
f 20//33 21//33 105//33
f 6//33 7//33 119//33
f 9//33 10//33 116//33
f 27//33 99//33 100//33
f 30//33 96//33 97//33
f 3//33 123//33 124//33
f 18//33 19//33 107//33
f 23//33 103//33 104//33
f 12//33 114//33 115//33
f 32//33 94//33 95//33
f 16//33 110//33 111//33
f 4//33 5//33 121//33
f 9//33 117//33 118//33
f 25//33 101//33 102//33
f 29//33 97//33 98//33
f 18//33 108//33 109//33
f 21//33 22//33 104//33
f 11//33 115//33 116//33
f 14//33 15//33 111//33
f 30//33 31//33 95//33
f 20//33 106//33 107//33
f 13//33 113//33 114//33
f 1//33 125//33 94//33
f 6//66 120//66 121//66
f 25//33 26//33 100//33
f 131//33 132//33 145//33
f 132//33 126//33 145//33
f 126//33 127//33 145//33
f 145//33 142//33 139//33
f 139//33 135//33 133//33
f 133//33 128//33 143//33
f 128//33 129//33 143//33
f 129//33 146//33 143//33
f 143//33 140//33 156//33
f 140//33 136//33 156//33
f 136//33 137//33 156//33
f 156//33 154//33 152//33
f 152//33 149//33 150//33
f 150//33 157//33 155//33
f 155//33 153//33 150//33
f 153//33 151//33 150//33
f 151//33 148//33 147//33
f 147//33 144//33 141//33
f 141//33 138//33 134//33
f 134//33 130//33 131//33
f 145//33 139//33 131//33
f 139//33 133//33 131//33
f 156//33 152//33 151//33
f 152//33 150//33 151//33
f 151//33 147//33 131//33
f 147//33 141//33 131//33
f 141//33 134//33 131//33
f 133//33 143//33 131//33
f 143//33 156//33 131//33
f 125//34 132//34 131//34
f 115//35 146//35 129//35
f 122//36 145//36 127//36
f 105//37 157//37 150//37
f 110//38 156//38 137//38
f 104//39 155//39 157//39
f 109//40 154//40 156//40
f 103//41 153//41 155//41
f 108//42 152//42 154//42
f 102//43 151//43 153//43
f 107//44 149//44 152//44
f 101//45 148//45 151//45
f 106//46 150//46 149//46
f 100//47 147//47 148//47
f 99//48 144//48 147//48
f 114//49 143//49 146//49
f 121//50 142//50 145//50
f 98//51 141//51 144//51
f 113//52 140//52 143//52
f 120//53 139//53 142//53
f 97//54 138//54 141//54
f 112//55 136//55 140//55
f 119//56 135//56 139//56
f 96//57 134//57 138//57
f 111//58 137//58 136//58
f 118//59 133//59 135//59
f 95//60 130//60 134//60
f 117//61 128//61 133//61
f 124//62 126//62 132//62
f 94//63 131//63 130//63
f 116//64 129//64 128//64
f 123//65 127//65 126//65